<?xml version="1.0" encoding="UTF-8" standalone="no"?>
<svg
   xmlns:dc="http://purl.org/dc/elements/1.1/"
   xmlns:cc="http://creativecommons.org/ns#"
   xmlns:rdf="http://www.w3.org/1999/02/22-rdf-syntax-ns#"
   xmlns:svg="http://www.w3.org/2000/svg"
   xmlns="http://www.w3.org/2000/svg"
   xmlns:xlink="http://www.w3.org/1999/xlink"
   xmlns:sodipodi="http://sodipodi.sourceforge.net/DTD/sodipodi-0.dtd"
   xmlns:inkscape="http://www.inkscape.org/namespaces/inkscape"
   id="0cdb4e4d-471b-45ef-b32c-d90d48ef90fc"
   data-name="Layer 1"
   width="1135.7"
   height="856.85"
   viewBox="0 0 1135.7 856.85"
   version="1.1"
   sodipodi:docname="imple552.svg"
   inkscape:version="0.92.4 (unknown)">
  <metadata
     id="metadata4662">
    <rdf:RDF>
      <cc:Work
         rdf:about="">
        <dc:format>image/svg+xml</dc:format>
        <dc:type
           rdf:resource="http://purl.org/dc/dcmitype/StillImage" />
        <dc:title>data trends</dc:title>
      </cc:Work>
    </rdf:RDF>
  </metadata>
  <sodipodi:namedview
     pagecolor="#ffffff"
     bordercolor="#666666"
     borderopacity="1"
     objecttolerance="10"
     gridtolerance="10"
     guidetolerance="10"
     inkscape:pageopacity="0"
     inkscape:pageshadow="2"
     inkscape:window-width="1920"
     inkscape:window-height="1004"
     id="namedview4660"
     showgrid="false"
     inkscape:zoom="0.55085489"
     inkscape:cx="391.76403"
     inkscape:cy="278.39039"
     inkscape:window-x="1920"
     inkscape:window-y="0"
     inkscape:window-maximized="1"
     inkscape:current-layer="0cdb4e4d-471b-45ef-b32c-d90d48ef90fc"
     showguides="true"
     inkscape:guide-bbox="true" />
  <defs
     id="defs3893">
    <linearGradient
       id="bb74ba87-0e24-4c9d-a373-e17481b146a7"
       x1="345.7"
       y1="823.95"
       x2="345.7"
       y2="606.19"
       gradientTransform="translate(636.4)"
       gradientUnits="userSpaceOnUse">
      <stop
         offset="0"
         stop-color="gray"
         stop-opacity="0.25"
         id="stop3885" />
      <stop
         offset="0.54"
         stop-color="gray"
         stop-opacity="0.12"
         id="stop3887" />
      <stop
         offset="1"
         stop-color="gray"
         stop-opacity="0.1"
         id="stop3889" />
    </linearGradient>
    <linearGradient
       id="9ace95f1-7a40-47d7-848c-20f8f7c52f52"
       x1="-254.27"
       y1="469.69"
       x2="-254.27"
       y2="232.12"
       gradientTransform="translate(1052.52 21.29) rotate(-2.2)"
       xlink:href="#bb74ba87-0e24-4c9d-a373-e17481b146a7" />
  </defs>
  <title
     id="title3895">data trends</title>
  <path
     d="M616.68,194.4c-71.4,11.92-142.91,5.5-211.75-3.38S267.41,170.8,195.86,173c-46,1.43-97.17,10.47-129,38.21-30.62,26.7-35,63.19-34.71,96.18.22,24.83,2.55,50.54,19.36,70.49,11.67,13.86,29.51,23.91,43,36.72,47,44.58,33.67,113.64,3.91,172.13-14,27.43-31.11,54.37-40.5,82.49S47.6,727.67,65.3,751c17.54,23.08,51.09,36.39,86,43.51,70.89,14.47,149.57,7,225.67-3.38C545.4,768,712,730.59,878,693.29c61.47-13.81,123.21-27.69,182.35-48,32.84-11.26,66.25-25.43,87.28-47.83,26.69-28.45,26.93-67.72.56-91.55C1104,466,1005,473.46,970.63,428c-18.94-25-11.23-58.61,3.24-88.17,31-63.4,91.75-125.65,83-189.36-6-43.76-48.38-80.39-104.68-90.52-59-10.62-134.41,7.11-167.78,50.61C750,155.34,679.72,183.88,616.68,194.4Z"
     id="path3897"
     style="fill:#0080ff;fill-opacity:1"
     fill="#0080ff"
     opacity="0.1"
     transform="translate(-32.15 -21.57)" />
  <path
     d="M1076.82,244.52s-14.07-5.72-58.81,14.81-50.33,17.92-61.92,14.78-18-3.88-30.46-21c0,0-8.75-47.48-17.23-54.83s-44.5,4.19-44.5,4.19-43.19,9.9-51.42-47.82c0,0,5.84-43.5-2.11-56.85,0,0,16,6.92,42.54-4.26s47.69,12,47.69,12,6.68,17.29,6,27.6,3.53,14.19,16.17,9.21c0,0,6.2-8.83-2.58-23.43s-15.06-25.46-12.61-36.79,9.5-27,32.17-34.91,53.44-9.37,68.22-15.52,18.35-10.16,18.35-10.16-9.09,9.11,12.32,47.73,7.77,55.38,7.77,55.38-11.4,27.15-61.7,24.95c0,0-48.47,1.77-22.05,22.32,0,0,16.93-3.44,42.23-11.49s43.57,25.16,48.1,48.26S1076.82,244.52,1076.82,244.52Z"
     transform="translate(-32.15 -21.57)"
     fill="#0080ff"
     id="path3899" />
  <path
     d="M1011.66,50.86l.27-.07c1.94,7.37-19.72,37-38.24,60.52l-.22-.17C999.6,77.93,1013.16,56.52,1011.66,50.86Z"
     transform="translate(-32.15 -21.57)"
     fill="#444053"
     id="path3901" />
  <path
     d="M973.86,110.66l.11.3c-14.79,18.8-33.4,41.25-48.29,57.87-1.42,1.58-2.83,3.25-4.18,4.94l-.43-.34c1.36-1.7,2.78-3.37,4.2-5C940.16,151.85,959.07,129.45,973.86,110.66Z"
     transform="translate(-32.15 -21.57)"
     fill="#444053"
     id="path3903" />
  <path
     d="M921.43,173l.3.51c-27.1,33.83-28.89,86.36-29,86.81l-5.71-6.6C887.12,253.24,894.15,207.05,921.43,173Z"
     transform="translate(-32.15 -21.57)"
     fill="#444053"
     id="path3905" />
  <path
     d="M1045.4,226.17s-32-16.61-56.86-10.65-81-21.07-81-21.07-23.8-9.67-28.59-20.69c0,0-16.33-17.27-17.26-26.21s-16.83-31.39-27.2-32.26"
     transform="translate(-32.15 -21.57)"
     fill="none"
     stroke="#444053"
     stroke-miterlimit="10"
     id="path3907" />
  <path
     d="M1040.77,242.16s-16.09-10.84-14.22-23.48"
     transform="translate(-32.15 -21.57)"
     fill="none"
     stroke="#444053"
     stroke-miterlimit="10"
     id="path3909" />
  <path
     d="M1016.08,256.16s-23-8.35-25.32-41.11"
     transform="translate(-32.15 -21.57)"
     fill="none"
     stroke="#444053"
     stroke-miterlimit="10"
     id="path3911" />
  <path
     d="M979,264.64s-22-18.24-14.69-50.12"
     transform="translate(-32.15 -21.57)"
     fill="none"
     stroke="#444053"
     stroke-miterlimit="10"
     id="path3913" />
  <path
     d="M934.33,255.73S919.68,225,932.72,205"
     transform="translate(-32.15 -21.57)"
     fill="none"
     stroke="#444053"
     stroke-miterlimit="10"
     id="path3915" />
  <path
     d="M1045.77,205.92s-16.64,5.28-13.07,14"
     transform="translate(-32.15 -21.57)"
     fill="none"
     stroke="#444053"
     stroke-miterlimit="10"
     id="path3917" />
  <path
     d="M1025.69,175.71s-22.26,7.07-22.79,38.57"
     transform="translate(-32.15 -21.57)"
     fill="none"
     stroke="#444053"
     stroke-miterlimit="10"
     id="path3919" />
  <path
     d="M994.63,168.44s-20.27,25-18.78,47.76"
     transform="translate(-32.15 -21.57)"
     fill="none"
     stroke="#444053"
     stroke-miterlimit="10"
     id="path3921" />
  <path
     d="M959.14,178.26S939,197.5,941.57,208.2"
     transform="translate(-32.15 -21.57)"
     fill="none"
     stroke="#444053"
     stroke-miterlimit="10"
     id="path3923" />
  <path
     d="M947,171.46s-18.88,3.38-21.52-2.81"
     transform="translate(-32.15 -21.57)"
     fill="none"
     stroke="#444053"
     stroke-miterlimit="10"
     id="path3925" />
  <path
     style="fill:#2f2e41;stroke-width:1.10166144"
     d="m 459.58557,653.04043 c -3.44914,30.17018 -6.89877,60.3403 -10.34745,90.51052 67.11096,0.86043 134.22194,1.71835 201.33294,2.57556 -4.82348,-31.68126 -9.67597,-63.35897 -14.5045,-95.03981 -58.75312,0 -117.50625,0 -176.25937,0 l -0.12417,1.09464 z"
     id="polygon10"
     inkscape:connector-curvature="0" />
  <path
     d="M922.46,148.67s9.54,12.63,12,9.8"
     transform="translate(-32.15 -21.57)"
     fill="none"
     stroke="#444053"
     stroke-miterlimit="10"
     id="path3927" />
  <path
     d="M1017,140.68s-47.58,3.45-58.35-10.89"
     transform="translate(-32.15 -21.57)"
     fill="none"
     stroke="#444053"
     stroke-miterlimit="10"
     id="path3929" />
  <path
     d="M912.45,85s22.33,47.93,38.55,54"
     transform="translate(-32.15 -21.57)"
     fill="none"
     stroke="#444053"
     stroke-miterlimit="10"
     id="path3931" />
  <path
     d="M935.88,62.19s13.71,44.08,30.7,57.84"
     transform="translate(-32.15 -21.57)"
     fill="none"
     stroke="#444053"
     stroke-miterlimit="10"
     id="path3933" />
  <path
     d="M1037,104.29s-36.19,15.54-57.92-.18"
     transform="translate(-32.15 -21.57)"
     fill="none"
     stroke="#444053"
     stroke-miterlimit="10"
     stroke-width="0.75"
     id="path3935" />
  <path
     d="M968.11,52.79S976.38,85.2,987.52,93"
     transform="translate(-32.15 -21.57)"
     fill="none"
     stroke="#444053"
     stroke-miterlimit="10"
     stroke-width="0.75"
     id="path3937" />
  <path
     d="M1031.58,68s-20.34,7.7-27.93,1.8"
     transform="translate(-32.15 -21.57)"
     fill="none"
     stroke="#444053"
     stroke-miterlimit="10"
     stroke-width="0.75"
     id="path3939" />
  <path
     style="opacity:0.1;stroke-width:1.10166144"
     d="m 450.09019,736.09537 c -3.91132,9.03193 3.75231,7.86835 10.39837,7.60049 63.29677,1.09037 126.59903,1.32082 189.90391,1.1418 -0.21915,-7.25455 -1.46921,-13.30799 -10.14949,-10.69601 -63.31039,0 -126.62078,0 -189.93117,0 l -0.12416,1.09463 z"
     id="polygon12"
     inkscape:connector-curvature="0" />
  <path
     d="M905.05,159.26s-.06,28.25-7.7,30.25"
     transform="translate(-32.15 -21.57)"
     fill="none"
     stroke="#444053"
     stroke-miterlimit="10"
     id="path3941" />
  <path
     style="fill:#3f3d56;stroke-width:1.10166144"
     d="m 416.78214,737.5994 c -2.90449,9.77554 4.67003,9.07205 12.11828,8.49484 84.25846,0 168.51691,0 252.77536,0 1.67426,-8.5453 -0.83935,-12.90273 -9.91496,-10.69816 -84.99289,0 -169.98578,0 -254.97868,0 v 1.10166 z"
     id="rect14"
     inkscape:connector-curvature="0" />
  <path
     d="M842.17,195.86s30.54,2.61,44.63-13.15"
     transform="translate(-32.15 -21.57)"
     fill="none"
     stroke="#444053"
     stroke-miterlimit="10"
     id="path3943" />
  <path
     style="fill:#3f3d56;stroke-width:1.10166144"
     d="m 184.1307,135.78878 c -11.8451,-0.24664 -20.34576,11.85712 -18.38397,23.06389 0,146.24913 0,292.49828 0,438.74742 254.8216,0 509.64321,0 764.46481,0 -0.0661,-148.36818 0.13218,-296.745 -0.0989,-445.1078 -0.81405,-11.625 -13.07423,-18.65624 -23.9181,-16.70782 -240.68787,0.003 -481.37613,-0.005 -722.06376,0.004 z"
     id="path16"
     inkscape:connector-curvature="0" />
  <path
     d="M897.16,125.88s-7.39,28.66-27.77,36.37"
     transform="translate(-32.15 -21.57)"
     fill="none"
     stroke="#444053"
     stroke-miterlimit="10"
     id="path3945" />
  <path
     style="fill:#b8c2cd;fill-opacity:1;stroke-width:1.10258555"
     d="m 165.10504,591.00303 c 0.30071,18.46456 -0.5784,37.01028 0.39441,55.42949 1.90204,10.74024 13.50403,16.41574 23.66082,14.72397 241.70357,-0.0704 483.416,0.14066 725.11404,-0.10543 11.60786,-0.8717 18.52302,-13.11795 16.57851,-23.91165 0,-16.11323 0,-32.22647 0,-48.3397 -255.24926,0 -510.49853,0 -765.74778,0 v 1.10166 z"
     id="path18"
     inkscape:connector-curvature="0" />
  <path
     d="M823.85,165.68s21.62,7.51,40.21-11.63"
     transform="translate(-32.15 -21.57)"
     fill="none"
     stroke="#444053"
     stroke-miterlimit="10"
     id="path3947" />
  <path
     d="M873.12,101.25s-2,24.34-15.27,35.72"
     transform="translate(-32.15 -21.57)"
     fill="none"
     stroke="#444053"
     stroke-miterlimit="10"
     id="path3949" />
  <path
     d="M824.67,128.6s17.94.12,22.15-5.73"
     transform="translate(-32.15 -21.57)"
     fill="none"
     stroke="#444053"
     stroke-miterlimit="10"
     id="path3951" />
  <ellipse
     cx="815.98181"
     cy="800.62"
     rx="219.36823"
     ry="16.83"
     id="ellipse3953"
     style="opacity:0.1;fill:#0080ff;stroke-width:0.78774565" />
  <circle
     cx="552.35"
     cy="103.56"
     r="9.15"
     fill="#fff"
     id="circle3981" />
  <rect
     x="194.7153"
     y="164.04495"
     width="705.3172"
     height="400.79388"
     id="rect3993"
     style="fill:#ffffff;stroke-width:1.19994318" />
  <rect
     x="192.7153"
     y="163.13258"
     width="154.23799"
     height="401.7063"
     id="rect4145-1"
     style="fill:#0080ff;fill-opacity:1;stroke-width:1.70577335" />
  <path
     style="fill:#0080ff;stroke-width:1.10166144"
     d="m 550.78171,603.22889 c -14.33548,0.0626 -23.49478,18.30321 -14.98002,29.83738 7.26635,11.95193 26.56302,10.73906 32.84543,-1.38999 4.96163,-8.82622 1.51412,-22.39024 -8.75734,-26.65935 -2.83339,-1.32495 -5.9844,-1.94272 -9.10807,-1.78804 z"
     id="path22"
     inkscape:connector-curvature="0" />
  <path
     d="M1034.42,674.83c.21-.57-1.38-3.77-1.38-3.93s-1.63-1.94-1.63-2.93-2.17-3.15-2.17-3.15-2.9-1.2-3.21-3.82-3.48-2.67-3.49-2.67h0s0-.24,0-.6a8.47,8.47,0,0,0-.38-3.07,3.12,3.12,0,0,0-1.8-1.52,6.76,6.76,0,0,0-1-2.67,3,3,0,0,1-.74-2.83c.32-1-.42-3.51-2-3.88s-3.27-.94-3.27-.94l-.42.07-.21-.07a10.31,10.31,0,0,1-1.11.14,1.4,1.4,0,0,1-.9-.3c-.53-.57-4.8-1.67-5.59-1.67a13.25,13.25,0,0,1-3.06-1l-2.27-1.73a14.81,14.81,0,0,1-2-2.74l0,0h0a11.19,11.19,0,0,1-.48-1.38h0a12.47,12.47,0,0,0,2-2.7l.15-.31a1.27,1.27,0,0,0,.34,0l.14-.06a2.22,2.22,0,0,0,1.12-1.34h0a2.19,2.19,0,0,0,.1-.34l0-.12a2,2,0,0,0,0-.24.59.59,0,0,0,0-.13,2,2,0,0,0,0-.24s0-.09,0-.13l0-.3h0c.05-.37.09-.74.17-1.11h0a21.08,21.08,0,0,1,1.78-3.94h0q.14-.28.24-.57c.08-.21.15-.43.21-.64a1.46,1.46,0,0,0,0-.2c0-.15.08-.31.11-.47s0-.14,0-.21c0-.22.06-.44.08-.66a8,8,0,0,0-.54-3.68c-.39-1-1-1.87-1.38-2.85-.61-1.49-.77-3.18-1.51-4.6a5.49,5.49,0,0,0-6.57-2.68c-1.15.43-2.14,1.26-3.31,1.63-1.56.5-3.22.12-4.84-.1s-3.4-.24-4.69.81c-1.5,1.21-1.91,3.49-3.31,4.83-.59.56-1.32.91-1.94,1.43a3.15,3.15,0,0,0-1,1.33l0,.11a1,1,0,0,0,0,.14.88.88,0,0,0,0,.16s0,.07,0,.11a2.61,2.61,0,0,0,0,.28h0a2.38,2.38,0,0,0,.05.26s0,0,0,.07a1.42,1.42,0,0,0,.07.22v0l.09.24.06.12a.3.3,0,0,0,0,.1,6.48,6.48,0,0,1,.49,1.22,1.37,1.37,0,0,1,0,.8,2.33,2.33,0,0,1-.59.77,11.06,11.06,0,0,0-2.38,3.81c-.06.16-.11.33-.17.49v0h.07a2.52,2.52,0,0,0,.46.1l.27,0a4.26,4.26,0,0,0,1.07-.08l.27-.06a6.31,6.31,0,0,0,1.07-.4c0,.11,0,.22,0,.33v.18a12.45,12.45,0,0,0,6.92,11.14c0,.11,0,.23,0,.34a2.7,2.7,0,0,1,0,.28l-.14-.13s-1-.47-1.85.89a6,6,0,0,1-2.59,2s-9.6,1.52-10,2.78l-4.48.26s-1.58.21-1.74,3.51-1,3.61-1,3.61-1.85,3.25-1.69,4.93a2.73,2.73,0,0,1-1.43,2.51l-.21,3a2,2,0,0,0-2.21,1.78,7.21,7.21,0,0,1-1.32,3s-2.9,2.41-3.06,4.45l-1.8,1.1s-4.16-.94-5.11-2.62l-.3-.27,0,0v0a14.23,14.23,0,0,0-1.74-1.54,1.29,1.29,0,0,1,.08.84l-.31-.34L941,666s-6.2-7.12-10.15-7.62h0a2.49,2.49,0,0,0-1.78,1.72c-.5,1.7-1,4.52.28,5.91l6.25,6.66.16.12,1.36,1.74c-.23.55-.43,1.08-.59,1.57v0c0,.11-.07.21-.1.31l0,.1-.09.29c0,.06,0,.12-.05.17l0,.1c-.15.53-.24.93-.29,1.16l-.35-.11.34.15v0a.45.45,0,0,0,0,.11l.32.14c1.85.81,11.07,4.85,11.55,5.47a6.67,6.67,0,0,0,7.17,1,7.56,7.56,0,0,0,3.85-4.24A44.77,44.77,0,0,0,962,676c.1-.62,2.48-1.36,2.48-1.36s.21,7-1,9.59S960,698.15,960,698.15a1.71,1.71,0,0,1,.45,0l-.13.66a1.57,1.57,0,0,1,.56,0c-.17,1.3-1.14,7.3-1.14,7.3a15.39,15.39,0,0,1-.84,3.67c-.53.94-.59,5.86-.59,5.86l-.84,3.57s.11.24.32.61v0a9,9,0,0,0,2.43,3.13,6.16,6.16,0,0,1-.43,1.63,5.78,5.78,0,0,0-.42,2.52,31.64,31.64,0,0,0-.79,5.19,19.52,19.52,0,0,1-.58,4l-1,9.12s-.63,7.9-.32,10a19.09,19.09,0,0,1-.21,5.08s.63,6.24.48,6.92-1,3.62-.48,5.24.21,6.08.21,6.08.32,5.87.69,7.75a13.26,13.26,0,0,1-.11,4.3,34.75,34.75,0,0,1-.53,4c-.15,0-1.53,2.78,1.27,5.51s1.06,2.3,1.06,2.3-2.22-1.1-2,1.15.6,1.59.63,1.53l-.52,1.72.37.05c-.1.12-.2.25-.31.37a8.15,8.15,0,0,1-1.06,1.1,2.3,2.3,0,0,0-.69,1.52,41.26,41.26,0,0,1-7.54,6.39,22.42,22.42,0,0,0-4.29,2.88c-.65.71-.54,1.29.81,1.73a20.45,20.45,0,0,0,11.44.21,13.35,13.35,0,0,0,5.6-3.61,8.07,8.07,0,0,1,4.48-.74c2.22.42,6.65-2.46,6.65-2.46l-.08-.74-.24-2.14a1.7,1.7,0,0,1-.37-1.31,7,7,0,0,0-.18-1.88c0-.21-.08-.42-.12-.61l.41-.08s-.53-2.67.42-3.19.68-7.39.68-7.39a8.4,8.4,0,0,0-1.84-1.83c-.63-.27-.06-3.52,0-3.93s1-8.55,1-8.55a11,11,0,0,1,.11-3.66c.42-1.1-.53-5.34-.53-5.34a1,1,0,0,1,.26-1.16c.58-.63.37-6.23.37-6.23s-.05-2.83-.05-3.57a12.93,12.93,0,0,1,1.21-4.29c.58-.89.22-3.67.22-3.67h0l0-.21c0-.08,0-.18,0-.3l0-.28a40.89,40.89,0,0,1,1-4.54c.69-2.2,1.48-6.08,1.48-6.08l4.91-12.79,0-.15a20.05,20.05,0,0,1,2.27,8.07,46.08,46.08,0,0,1,.42,5.92,69.66,69.66,0,0,0,.48,7.17s.68,8.49.68,8.86.85,6.91,1.38,7.91-.53,4-.85,4.35.1,8,.1,8-.79,6.08-.95,7.34-.79,6.08-.26,8,.32,2.14.32,2.14,1.9,1.94.79,2.1a2.9,2.9,0,0,0-2.11,3.82,49.81,49.81,0,0,0,2.32,5.61l.88-.18v.62l.06,3.12a18.48,18.48,0,0,1,.16,3.67c-.15.5-.37,2.85-.47,4.07,0,.45-.06.75-.06.75s0,2.78,5.86,1.94,6.91-3.14,6.91-3.14,0-.11,0-.29c.09-.53.28-1.66.43-2.28.21-.84-1.68-4.61-1.68-4.61s-.32-2.57-.85-3.15a2.7,2.7,0,0,1-.42-1.1c0-.21-.09-.43-.13-.64l.39.07s-.31-1.84.9-2.41a1.74,1.74,0,0,0,.74-2.31,17.63,17.63,0,0,1,.47-3.46,1.72,1.72,0,0,1,.42-1.67c.75-.74,1.32-5.87,1.32-5.87l.11-19.81a19.05,19.05,0,0,0-.05-4.92c-.43-1.42-.85-4.14-.27-4.88s.06-4.13.06-4.13,0-7.18.79-9,.53-13.05.53-13.05l.21-7.39s1.72-1.62,1.31-10.13c1.84-.11,3.91-.18,4.23.07.58.47,4.32,2.89,6.54,1.37a31.72,31.72,0,0,0,2.63-2.05l-.93-15.71c.58.88.94,1.46.94,1.46,0-2.2,6.22-9.33,6.22-9.33s5.8-7.49,7.07-8.38,3.75-5.6,3.75-5.6a22.5,22.5,0,0,1,1.26-2.62C1036.1,677.92,1034.2,675.41,1034.42,674.83Zm-13.62,5.5c-1.58.16-4.9,3.78-5,4.56a3.16,3.16,0,0,1-.7,1.41c0-.32,0-.64-.07-1-.38-4.63-.78-10.27-.6-10.81a31.41,31.41,0,0,0,.21-5.19h0l.06-.08c1.06,3.29,4.37,7.16,4.37,7.16s.58,1.68,1.26,1.73S1020.8,680.33,1020.8,680.33Z"
     transform="translate(-32.15 -21.57)"
     fill="url(#bb74ba87-0e24-4c9d-a373-e17481b146a7)"
     id="path3995" />
  <path
     d="M936.21,679.14s1.93-10.09,8.12-10.14l4.52,9.3-3,2.08S939.28,680.59,936.21,679.14Z"
     transform="translate(-32.15 -21.57)"
     fill="#65617d"
     id="path3997" />
  <path
     d="M948.85,678.3l-3,2.08a35.47,35.47,0,0,1-7.9-.66,9.89,9.89,0,0,1-1.72-.58s0-.06,0-.17a0,0,0,0,1,0,0,21.91,21.91,0,0,1,1.17-3.71c.19-.45.4-.92.64-1.38a9.32,9.32,0,0,1,3.92-4.3,5.19,5.19,0,0,1,2.06-.54h.28l.09.2,1.53,3.15Z"
     transform="translate(-32.15 -21.57)"
     opacity="0.1"
     id="path3999" />
  <path
     d="M1000.22,720.21s6.5-.62,7.07-.15,4.27,2.86,6.45,1.35.73-6.76.73-7-.21-7.64-.21-7.64l-3.9-5.25-4.89-9.21-10-1,.26,14.61,0,7.48Z"
     transform="translate(-32.15 -21.57)"
     fill="#65617d"
     id="path4001" />
  <path
     d="M1000.22,720.21s6.5-.62,7.07-.15,4.27,2.86,6.45,1.35.73-6.76.73-7-.21-7.64-.21-7.64l-3.9-5.25-4.89-9.21-10-1,.26,14.61,0,7.48Z"
     transform="translate(-32.15 -21.57)"
     opacity="0.1"
     id="path4003" />
  <path
     style="opacity:0.1;stroke-width:1.04877818"
     d="m 567.17184,664.15669 c 27.69259,25.2016 55.38157,50.40647 83.07647,75.60599 -4.44415,-26.33725 -8.88242,-52.67533 -13.32537,-79.01275 -24.49762,0 -48.99525,0 -73.49287,0 1.24726,1.13559 2.49451,2.27117 3.74177,3.40676 z"
     id="polygon24"
     inkscape:connector-curvature="0" />
  <path
     d="M943,668.74s-.51,6.34-4.47,6.44c0,0-1.12-.67-2.62-1.8-3.48-2.6-9-7.59-7.46-12.24,2.18-6.65,12.79,5.62,12.79,5.62l.82.91Z"
     transform="translate(-32.15 -21.57)"
     fill="#fbbebe"
     id="path4005" />
  <path
     d="M943,668.74s-.51,6.34-4.47,6.44c0,0-1.12-.67-2.62-1.8l-.34-.43a5.15,5.15,0,0,0,2.16.58,2.9,2.9,0,0,0,2.83-1.78,21.58,21.58,0,0,0,1.1-2.52,8.09,8.09,0,0,0,.4-1.56Z"
     transform="translate(-32.15 -21.57)"
     opacity="0.1"
     id="path4007" />
  <path
     d="M941.31,680.23l-.89-1.15-3-3.85-1.53-2a5.26,5.26,0,0,0,2.17.59,2.92,2.92,0,0,0,2.82-1.79,22.31,22.31,0,0,0,1.1-2.51c.49-1.41.48-2.13.31-2.37A14.75,14.75,0,0,1,944,668.7l0,0,.29.27.1.21,1.51,3s0,0,0,.13C946.07,673.3,946.58,679.37,941.31,680.23Z"
     transform="translate(-32.15 -21.57)"
     fill="#e7effd"
     id="path4009" />
  <path
     d="M972.46,814.07s-4.37,2.86-6.56,2.44a7.82,7.82,0,0,0-4.42.73,13.14,13.14,0,0,1-5.51,3.59c-3.53,1.19-8.47.72-11.28-.21-1.33-.44-1.44-1-.8-1.72a22.18,22.18,0,0,1,4.23-2.86,40.71,40.71,0,0,0,7.44-6.34,2.27,2.27,0,0,1,.67-1.51,8,8,0,0,0,1-1.09c.56-.66,1.08-1.35,1.08-1.35l12.85.41s.22.93.39,1.88a6.91,6.91,0,0,1,.18,1.87,1.69,1.69,0,0,0,.36,1.3l.23,2.12Z"
     transform="translate(-32.15 -21.57)"
     fill="#65617d"
     id="path4011" />
  <path
     d="M999.34,817.65c-.16.63-.34,1.74-.43,2.27,0,.17,0,.28,0,.28s-1,2.29-6.81,3.12-5.77-1.92-5.77-1.92,0-.3.06-.74a38.1,38.1,0,0,1,.46-4,18.94,18.94,0,0,0-.16-3.64l-.06-3.1,0-2.16,9.56-1a19.63,19.63,0,0,0,.31,2.13,2.87,2.87,0,0,0,.42,1.09c.52.57.83,3.12.83,3.12S999.55,816.82,999.34,817.65Z"
     transform="translate(-32.15 -21.57)"
     fill="#65617d"
     id="path4013" />
  <path
     d="M971.21,806.16s.22.93.39,1.88c-1.39.25-7.45,1.3-9,.57a23.38,23.38,0,0,0-5.41-1.3l.06-.21c.56-.66,1.08-1.35,1.08-1.35Z"
     transform="translate(-32.15 -21.57)"
     opacity="0.1"
     id="path4015" />
  <path
     d="M996.42,808.87c-2.42-.42-7.74.58-9.83,1l0-2.16,9.56-1A19.63,19.63,0,0,0,996.42,808.87Z"
     transform="translate(-32.15 -21.57)"
     opacity="0.1"
     id="path4017" />
  <path
     d="M1001.83,730l-.2,7.33s.26,11.18-.52,13-.78,8.89-.78,8.89.52,3.38-.06,4.11-.15,3.43.26,4.83a18.81,18.81,0,0,1,.05,4.89l-.1,19.66s-.57,5.09-1.3,5.82a1.68,1.68,0,0,0-.41,1.66,17.29,17.29,0,0,0-.47,3.44,1.72,1.72,0,0,1-.73,2.28c-1.2.58-.89,2.4-.89,2.4-2.85-.68-11,1.14-11,1.14a47.77,47.77,0,0,1-2.29-5.57,2.87,2.87,0,0,1,2.08-3.79c1.09-.16-.78-2.08-.78-2.08s.21-.26-.32-2.13.11-6.66.26-7.91l.94-7.27s-.42-7.65-.1-8,1.35-3.33.83-4.31-1.35-7.49-1.35-7.86-.68-8.79-.68-8.79-.62-5.87-.47-7.12a45.67,45.67,0,0,0-.41-5.87,20,20,0,0,0-2.24-8l-.05.15-4.84,12.69s-.78,3.85-1.45,6a39.89,39.89,0,0,0-1,4.52l0,.28c0,.11,0,.21,0,.29l0,.21h0s.37,2.75-.2,3.64a12.68,12.68,0,0,0-1.2,4.26c0,.73.05,3.54.05,3.54s.21,5.56-.36,6.18a1,1,0,0,0-.26,1.15s.93,4.21.52,5.3a10.92,10.92,0,0,0-.11,3.64s-.83,8.06-.93,8.48-.68,3.64-.05,3.9a8.34,8.34,0,0,1,1.81,1.82s.27,6.81-.67,7.33-.42,3.17-.42,3.17-7.54,1.46-9.25.62a23.94,23.94,0,0,0-5.41-1.3l.52-1.71c0,.06-.38.62-.62-1.51s1.92-1.15,1.92-1.15,1.72.42-1-2.28-1.4-5.46-1.25-5.46a34.21,34.21,0,0,0,.52-4,13.41,13.41,0,0,0,.11-4.27c-.37-1.87-.68-7.7-.68-7.7s.26-4.41-.21-6,.31-4.52.47-5.2-.47-6.86-.47-6.86a19.27,19.27,0,0,0,.21-5c-.31-2.14.31-10,.31-10l.94-9a19.45,19.45,0,0,0,.57-4,32.57,32.57,0,0,1,.78-5.14,5.78,5.78,0,0,1,.41-2.5,18.66,18.66,0,0,0,.73-4.47l5-11.44,2.44-10.09,33-.31s.12.88.32,2.47.48,3.94.79,6.84c.29,2.64.61,5.75.91,9.2C1003.91,728.06,1001.83,730,1001.83,730Z"
     transform="translate(-32.15 -21.57)"
     fill="#3f3d56"
     id="path4019" />
  <path
     d="M998.77,639l-7.7,8.22s-9.88-4-8.84-5.3c.4-.53.34-2.18.11-4-.37-2.88-1.15-6.19-1.15-6.19s17.26-2.81,15.81.1a4.77,4.77,0,0,0-.11,3.45A12.67,12.67,0,0,0,998.77,639Z"
     transform="translate(-32.15 -21.57)"
     fill="#fbbebe"
     id="path4021" />
  <path
     d="M997,631.82c-.53,1.06-.79,1.17-.46,2.31-2.25,2.42-5.12,5.07-8.69,5.07a12.25,12.25,0,0,1-5.51-1.29c-.37-2.88-1.15-6.19-1.15-6.19S998.45,628.91,997,631.82Z"
     transform="translate(-32.15 -21.57)"
     opacity="0.1"
     id="path4023" />
  <path
     d="M1000.22,626.51a12.38,12.38,0,1,1-24.75,0v-.17a12.38,12.38,0,0,1,24.75.17Z"
     transform="translate(-32.15 -21.57)"
     fill="#fbbebe"
     id="path4025" />
  <path
     d="M1002,708.16c-1.63,0-7.09.06-13.19.15h-.08l-2,0h-.07c-7.23.11-14.36-1.3-17.22-1-6.08.57,2.18-5.62,2.18-5.62a50.77,50.77,0,0,0,13.86,1.4l1.75-.09c5.53-.31,11.09-.83,14-1.7C1001.42,702.92,1001.7,705.25,1002,708.16Z"
     transform="translate(-32.15 -21.57)"
     opacity="0.1"
     id="path4027" />
  <path
     d="M1002,707.84c-1.63,0-7.09.06-13.19.16h-.08l-2,0h-.07c-7.23.12-14.36-1.29-17.22-1-6.08.57,2.18-5.62,2.18-5.62a50.77,50.77,0,0,0,13.86,1.4l1.75-.09c5.53-.31,11.09-.83,14-1.7C1001.42,702.6,1001.7,704.94,1002,707.84Z"
     transform="translate(-32.15 -21.57)"
     fill="#e3a79f"
     id="path4029" />
  <path
     d="M984.52,642.43,975,646.9,967.57,704s4.37-2,6.86-.73,10.19.11,10.19.11,5.62-.32,6.45.31,10.61-2.6,10.61-2.6,1.76-4,.41-4.58.42-6.76.42-6.76l-.83-41.18-1.67-5.3-4.47-2.7L991,644.19l-2.19.32Z"
     transform="translate(-32.15 -21.57)"
     opacity="0.1"
     id="path4031" />
  <path
     d="M984.52,641.8,975,646.27l-7.38,57.1s4.37-2,6.86-.73,10.19.1,10.19.1,5.62-.31,6.45.31,10.61-2.6,10.61-2.6,1.76-4,.41-4.57.42-6.76.42-6.76l-.83-41.18-1.67-5.31-4.47-2.7L991,643.57l-2.19.31Z"
     transform="translate(-32.15 -21.57)"
     fill="#e7effd"
     id="path4033" />
  <path
     d="M984.36,644.45s2.76,3.28,2.71,4-.16,2.28-.16,2.28l-2.08,4.22s-1.14,5.25-1.14,6.34-1.82,10.55-1.82,10.55l-2.19,14.56-2.75,19.09,2.8,4.83,3.33-2.81,4.42-34,.94-6.71s1-12.06,1-13.31a41.73,41.73,0,0,0-.58-4.52s.68-3.12,3.49-3.85-.21-.16-.21-.16l-1.61-1.3-1.41.57S985.19,643,984.36,644.45Z"
     transform="translate(-32.15 -21.57)"
     opacity="0.1"
     id="path4035" />
  <path
     d="M984.05,644.14s2.76,3.28,2.7,4-.15,2.29-.15,2.29l-2.08,4.21s-1.15,5.26-1.15,6.35-1.82,10.55-1.82,10.55l-2.18,14.56-2.76,19.08,2.81,4.84,3.33-2.81,4.42-34,.94-6.71s1-12.06,1-13.31a42.71,42.71,0,0,0-.57-4.53s.68-3.12,3.49-3.84-.21-.16-.21-.16l-1.61-1.3-1.41.57S984.88,642.69,984.05,644.14Z"
     transform="translate(-32.15 -21.57)"
     fill="#3f3d56"
     id="path4037" />
  <path
     d="M982.23,638.68s-.42.32-.52,2.4a41.36,41.36,0,0,1-1.56,6.75s5.41-3.74,8.11-3.32Z"
     transform="translate(-32.15 -21.57)"
     opacity="0.1"
     id="path4039" />
  <path
     d="M982.23,638.06s-.42.31-.52,2.39a41.28,41.28,0,0,1-1.56,6.76s5.41-3.74,8.11-3.33Z"
     transform="translate(-32.15 -21.57)"
     fill="#e7effd"
     id="path4041" />
  <path
     d="M997,637l-8.53,7.49s7.18,4.26,8.11,5.3,1.87-10.19,1.87-10.19Z"
     transform="translate(-32.15 -21.57)"
     opacity="0.1"
     id="path4043" />
  <path
     d="M997.31,636.4l-8.53,7.48s7.18,4.27,8.11,5.31S998.77,639,998.77,639Z"
     transform="translate(-32.15 -21.57)"
     fill="#e7effd"
     id="path4045" />
  <path
     d="M982.54,638.68s-.93-.46-1.82.89a5.84,5.84,0,0,1-2.55,2s-9.46,1.51-9.82,2.76l-4.42.26s-1.56.21-1.72,3.48-1,3.59-1,3.59-1.82,3.22-1.66,4.89a2.71,2.71,0,0,1-1.4,2.49l6.5,16.9s.2,7-1,9.52-3.43,13.83-3.43,13.83.93-.21.88.41-1.14,7.44-1.14,7.44a15.13,15.13,0,0,1-.84,3.64c-.52.94-.57,5.82-.57,5.82l-.83,3.54s2,4.42,5,3.8,8.48-12.43,8.48-12.43l3.48-12.74,2.7-12.58.78-8.53,1.25-18.88,1.82-12.48S983.27,639.57,982.54,638.68Z"
     transform="translate(-32.15 -21.57)"
     opacity="0.1"
     id="path4047" />
  <path
     d="M982.23,638.06s-.94-.47-1.82.88a5.81,5.81,0,0,1-2.55,2s-9.46,1.51-9.82,2.75l-4.42.26s-1.56.21-1.72,3.49-1,3.59-1,3.59-1.82,3.22-1.66,4.88a2.74,2.74,0,0,1-1.41,2.5l6.5,16.9s.21,7-1,9.51-3.44,13.84-3.44,13.84.94-.21.89.41-1.15,7.44-1.15,7.44a15,15,0,0,1-.83,3.64c-.52.93-.57,5.82-.57,5.82l-.83,3.54s2,4.42,5,3.79,8.48-12.43,8.48-12.43l3.48-12.73,2.7-12.59.78-8.53,1.25-18.87,1.82-12.48S983,638.94,982.23,638.06Z"
     transform="translate(-32.15 -21.57)"
     fill="#65617d"
     id="path4049" />
  <path
     d="M948.85,678.3l-3,2.08a35.47,35.47,0,0,1-7.9-.66l-1.68-.75-.34-.14.35.11a6.87,6.87,0,0,0,4.16.14c4.27-1.43,3.8-8.48,3.63-10.07,0-.16,0-.27,0-.31h0l0,0a2.22,2.22,0,0,0,.19.27l.19.2h0l1.51,3s0,0,0,.13Z"
     transform="translate(-32.15 -21.57)"
     opacity="0.1"
     id="path4051" />
  <path
     d="M959.3,658l-1.46.42-.2,3a2,2,0,0,0-2.19,1.77,7.2,7.2,0,0,1-1.3,3s-2.86,2.39-3,4.41l-1.77,1.1s-4.11-.94-5-2.6c0,0,1.87,13.41-8.12,10.14,0,0,11.18,4.88,11.7,5.56a6.55,6.55,0,0,0,7.07,1,7.55,7.55,0,0,0,3.8-4.21s3-4.22,3.12-4.84,2.44-1.35,2.44-1.35l4.48-10.82Z"
     transform="translate(-32.15 -21.57)"
     fill="#65617d"
     id="path4053" />
  <path
     d="M995.8,643.26l1.51-6.86a8.19,8.19,0,0,0,1.35,2.75l2.24,1.72a12.92,12.92,0,0,0,3,1c.78,0,5,1.09,5.51,1.66s2.6.16,2.6.16,1.72.57,3.23.93,2.23,2.86,1.92,3.85a3,3,0,0,0,.73,2.81,6.75,6.75,0,0,1,.94,2.65,3,3,0,0,1,1.76,1.51,10.53,10.53,0,0,1,.37,3.64L1013.22,670a31.9,31.9,0,0,1-.21,5.14c-.31.94,1.09,16.85,1.09,16.85l1.62,27.35a30.49,30.49,0,0,1-2.6,2c-.47.21-.94-9.67-.94-10s-12-18-12-18a16.19,16.19,0,0,1-1.61-3.17c0-.57-1.51-5.82-1.51-5.82l-2.29-10.14Z"
     transform="translate(-32.15 -21.57)"
     opacity="0.1"
     id="path4055" />
  <path
     d="M1021.61,658.52c0,.36,0,.6,0,.6L1013.85,670h0a31.68,31.68,0,0,1-.2,5.14c-.18.55.21,6.14.58,10.74.26,3.32.51,6.11.51,6.11l.68,11.6.93,15.75a29,29,0,0,1-2.6,2c-.47.21-.94-9.67-.94-10s-12-18-12-18a16.19,16.19,0,0,1-1.61-3.17c0-.57-1.51-5.82-1.51-5.82l-2.28-10.14,1-31,.88-6.86a15,15,0,0,0,2,2.75l2.23,1.72a13,13,0,0,0,3,1c.78,0,5,1.09,5.51,1.66s2.6.16,2.6.16,1.71.57,3.22.93,2.24,2.86,1.93,3.85a3,3,0,0,0,.72,2.81,6.59,6.59,0,0,1,.94,2.65,3,3,0,0,1,1.77,1.51A8.53,8.53,0,0,1,1021.61,658.52Z"
     transform="translate(-32.15 -21.57)"
     fill="#65617d"
     id="path4057" />
  <path
     d="M958.05,797.06c.26,0,11.18.42,11,2.19S958.05,797.06,958.05,797.06Z"
     transform="translate(-32.15 -21.57)"
     opacity="0.1"
     id="path4059" />
  <path
     d="M960.5,800s7.33,1.19,5.4,2.29S960.5,800,960.5,800Z"
     transform="translate(-32.15 -21.57)"
     opacity="0.1"
     id="path4061" />
  <path
     d="M987.74,795.92s12.17,1,10.35,2.39-6.14,1.56-6.34,1.61A56.07,56.07,0,0,1,987.74,795.92Z"
     transform="translate(-32.15 -21.57)"
     opacity="0.1"
     id="path4063" />
  <path
     d="M986.29,801.28s6.76,1.14,7,2.44S986.29,801.28,986.29,801.28Z"
     transform="translate(-32.15 -21.57)"
     opacity="0.1"
     id="path4065" />
  <path
     d="M990,770s6.19,1.46,6.55,2.45Z"
     transform="translate(-32.15 -21.57)"
     opacity="0.1"
     id="path4067" />
  <path
     d="M966.16,774.45s-3.22.93-.1,2.8S966.16,774.45,966.16,774.45Z"
     transform="translate(-32.15 -21.57)"
     opacity="0.1"
     id="path4069" />
  <path
     d="M980.46,724.48c.37,0,6-1.87,8-1a13.24,13.24,0,0,0,4.42.83Z"
     transform="translate(-32.15 -21.57)"
     opacity="0.1"
     id="path4071" />
  <path
     d="M981.19,730.4l-.05.52-4.84,12.69s-.78,3.85-1.45,6a39.89,39.89,0,0,0-1,4.52l4.29-26.61Z"
     transform="translate(-32.15 -21.57)"
     opacity="0.1"
     id="path4073" />
  <path
     d="M988.74,708l-2,0h-.07l-1.18-5.24,1.75-.09Z"
     transform="translate(-32.15 -21.57)"
     fill="#3f3d56"
     id="path4075" />
  <path
     d="M1013.27,701.65l-1.29,1.07-4.32,3.56s-11.7,6.24-14.93.31c-2.84-5.22,10.43-9,13.62-9.76l.68-.17Z"
     transform="translate(-32.15 -21.57)"
     fill="#fbbebe"
     id="path4077" />
  <path
     d="M963.3,650.54s2.29,1,2.81,2.49S963.3,650.54,963.3,650.54Z"
     transform="translate(-32.15 -21.57)"
     opacity="0.1"
     id="path4079" />
  <path
     d="M956.23,666.14s-3.33,4.05-2,5.61S956.23,666.14,956.23,666.14Z"
     transform="translate(-32.15 -21.57)"
     opacity="0.1"
     id="path4081" />
  <path
     d="M1015.72,652.83s-3.12.31-3.23,3Z"
     transform="translate(-32.15 -21.57)"
     opacity="0.1"
     id="path4083" />
  <path
     d="M986.81,695.46c.31-.31,7.48-10.92,9.15-10Z"
     transform="translate(-32.15 -21.57)"
     opacity="0.1"
     id="path4085" />
  <path
     d="M1000.22,626.51a12.4,12.4,0,0,1-1.46,5.85l-.09,0c-.79-.17-1.2-1.08-1.8-1.65a2.42,2.42,0,0,0-2.8-.39,2.82,2.82,0,0,0-1.38,2.66c-.4-1.66-.27-3.43-.66-5.1s-1.55-3.36-3.15-3.39c-.68,0-1.48.26-2-.26-.3-.31-.36-.8-.59-1.17-1.13-1.85-4.6-.91-6,0a36.81,36.81,0,0,1-4.82,3.27,12.38,12.38,0,0,1,24.75.17Z"
     transform="translate(-32.15 -21.57)"
     opacity="0.1"
     id="path4087" />
  <path
     d="M986.31,622.72c.23.38.29.87.59,1.18.5.51,1.3.25,2,.26,1.59,0,2.75,1.72,3.14,3.39s.26,3.44.66,5.1a2.83,2.83,0,0,1,1.38-2.67,2.43,2.43,0,0,1,2.8.4c.6.57,1,1.48,1.8,1.65s1.54-.59,1.82-1.42a24.13,24.13,0,0,0,.45-2.59c.35-1.62,1.41-2.95,2-4.49a8.19,8.19,0,0,0-.06-5.81c-.39-1-1-1.85-1.36-2.83-.6-1.48-.76-3.15-1.49-4.56a5.37,5.37,0,0,0-6.47-2.66c-1.13.42-2.11,1.24-3.26,1.61-1.54.5-3.18.12-4.77-.1s-3.35-.24-4.63.81c-1.47,1.2-1.87,3.46-3.26,4.79-.58.55-1.3.91-1.91,1.42a2.6,2.6,0,0,0-1.07,2.11c.09,1.08,1.14,2.06.75,3.05a2.37,2.37,0,0,1-.57.76,10.87,10.87,0,0,0-2.52,4.29c2.78.87,5.79-2.2,8-3.65C981.71,621.81,985.18,620.88,986.31,622.72Z"
     transform="translate(-32.15 -21.57)"
     fill="#3f3d56"
     id="path4089" />
  <path
     d="M1013.27,701.65l-1.29,1.07c-1.14-1.9-5.83-5.7-5.83-5.7l.2-.19.68-.17Z"
     transform="translate(-32.15 -21.57)"
     opacity="0.1"
     id="path4091" />
  <path
     d="M1014.52,699.73s-.46,1.15-.95,2.16-1,1.91-1,1.17c-.06-1.46-6.09-6.35-6.09-6.35l.82-.8,1-.92Z"
     transform="translate(-32.15 -21.57)"
     fill="#e7effd"
     id="path4093" />
  <path
     d="M1014.73,692l.68,11.6c-1.61-2.51-6-9-8.9-8.74l6.92-7.95a10.36,10.36,0,0,0,.79-1C1014.48,689.24,1014.73,692,1014.73,692Z"
     transform="translate(-32.15 -21.57)"
     opacity="0.1"
     id="path4095" />
  <path
     d="M1014.52,699.73s-.46,1.15-.95,2.16c-1.81-2.49-4.3-5.43-6.29-6l1-.92Z"
     transform="translate(-32.15 -21.57)"
     opacity="0.1"
     id="path4097" />
  <path
     d="M1019.72,657.66l1.87,1.46s3.12,0,3.43,2.65,3.18,3.8,3.18,3.8,2.13,2.13,2.13,3.12,1.61,2.75,1.61,2.91,1.56,3.32,1.35,3.9,1.66,3.06,1.09,4a24,24,0,0,0-1.25,2.6s-2.44,4.68-3.69,5.56-7,8.32-7,8.32-6.14,7.07-6.14,9.26c0,0-6-10-9.52-9.72l6.92-8s1.2-1.3,1.25-2.08,3.33-4.37,4.89-4.52c0,0,.26-2.14-.42-2.19s-1.25-1.71-1.25-1.71-4.57-5.41-4.63-8.84S1019.72,657.66,1019.72,657.66Z"
     transform="translate(-32.15 -21.57)"
     fill="#65617d"
     id="path4099" />
  <path
     d="M1022.48,662.6s-4.37,3.23-3.44,4.27S1022.48,662.6,1022.48,662.6Z"
     transform="translate(-32.15 -21.57)"
     opacity="0.1"
     id="path4101" />
  <path
     d="M1022.68,675.91s8.11-2.6,9,0Z"
     transform="translate(-32.15 -21.57)"
     opacity="0.1"
     id="path4103" />
  <path
     d="M972.46,814.07s-4.37,2.86-6.56,2.44a7.82,7.82,0,0,0-4.42.73,13.14,13.14,0,0,1-5.51,3.59c-3.53,1.19-8.47.72-11.28-.21-1.33-.44-1.44-1-.8-1.72,3.06.61,9.88,1.82,11.72.94a49.34,49.34,0,0,0,5.82-3.64s4.47-.63,5.1-.63a54.78,54.78,0,0,0,5.84-2.24Z"
     transform="translate(-32.15 -21.57)"
     opacity="0.1"
     id="path4105" />
  <path
     d="M998.91,819.92c0,.17,0,.28,0,.28s-1,2.29-6.81,3.12-5.77-1.92-5.77-1.92,0-.3.06-.74C988.17,821.35,992.16,822.12,998.91,819.92Z"
     transform="translate(-32.15 -21.57)"
     opacity="0.1"
     id="path4107" />
  <path
     d="M965.46,662s0,11.85-1,13S965.46,662,965.46,662Z"
     transform="translate(-32.15 -21.57)"
     opacity="0.1"
     id="path4109" />
  <path
     d="M1012.34,665.8l1.5,4.24S1014.44,665.88,1012.34,665.8Z"
     transform="translate(-32.15 -21.57)"
     opacity="0.1"
     id="path4111" />
  <g
     opacity="0.1"
     id="g4121">
    <path
       d="M975.57,620.35c.38-1-.62-1.93-.75-3a2,2,0,0,0-.16.94c.06.79.65,1.52.8,2.25A1.39,1.39,0,0,0,975.57,620.35Z"
       transform="translate(-32.15 -21.57)"
       id="path4113" />
    <path
       d="M992.83,631.55c-.38-1.64-.27-3.38-.64-5s-1.56-3.35-3.15-3.38c-.69,0-1.49.25-2-.26-.3-.31-.36-.8-.59-1.18-1.14-1.84-4.6-.91-6,0-2.13,1.42-5.05,4.38-7.78,3.71a9.94,9.94,0,0,0-.35,1c2.78.87,5.79-2.2,8-3.65,1.42-1,4.89-1.88,6,0,.23.38.29.87.59,1.18.5.51,1.3.25,2,.26,1.59,0,2.75,1.72,3.14,3.39s.26,3.44.66,5.1A2.74,2.74,0,0,1,992.83,631.55Z"
       transform="translate(-32.15 -21.57)"
       id="path4115" />
    <path
       d="M1000.65,629.6c-.29.82-1,1.58-1.83,1.41s-1.19-1.08-1.79-1.65a2.45,2.45,0,0,0-2.81-.39,2.85,2.85,0,0,0-1.38,2.52,2.77,2.77,0,0,1,1.23-1.51,2.43,2.43,0,0,1,2.8.4c.6.57,1,1.48,1.8,1.65s1.54-.59,1.82-1.42a7.41,7.41,0,0,0,.29-1.49C1000.74,629.28,1000.7,629.44,1000.65,629.6Z"
       transform="translate(-32.15 -21.57)"
       id="path4117" />
    <path
       d="M1003.09,622.51c-.58,1.55-1.64,2.88-2,4.5a8.33,8.33,0,0,0-.16,1c.36-1.62,1.41-2.94,2-4.48a8,8,0,0,0,.48-2.16A8.34,8.34,0,0,1,1003.09,622.51Z"
       transform="translate(-32.15 -21.57)"
       id="path4119" />
  </g>
  <rect
     x="385.35001"
     y="228.00999"
     width="74"
     height="76.720001"
     id="rect4123"
     style="fill:#dfe3ef" />
  <rect
     x="480.35001"
     y="228.00999"
     width="74"
     height="76.720001"
     id="rect4125"
     style="fill:#dfe3ef" />
  <rect
     x="584.02307"
     y="227.1682"
     width="74"
     height="76.720001"
     id="rect4127"
     style="opacity:0.2;fill:#0080ff;fill-opacity:1" />
  <rect
     x="675.34998"
     y="228.00999"
     width="74"
     height="76.720001"
     id="rect4131"
     style="opacity:0.2;fill:#0080ff" />
  <rect
     x="752.04"
     y="235.59"
     width="74"
     height="76.72"
     transform="translate(-37.64 509.97) rotate(-37.11)"
     fill="#0080ff"
     opacity="0.1"
     id="rect4133" />
  <rect
     x="385.35001"
     y="388.14001"
     width="169"
     height="126"
     id="rect4145"
     style="fill:#dfe3ef" />
  <path
     d="m 489.24,426.84 a 59.35,59.35 0 0 0 -78.72,56.08 4.21,4.21 0 0 1 -8.42,0 67.78,67.78 0 0 1 89.61,-64.14"
     id="path4147"
     inkscape:connector-curvature="0"
     style="fill:#0080ff" />
  <path
     d="m 491.71,418.78 a 67.87,67.87 0 0 1 45.89,64.14 4.21,4.21 0 1 1 -8.42,0 59.44,59.44 0 0 0 -39.94,-56.08"
     id="path4149"
     inkscape:connector-curvature="0"
     style="fill:#ffffff" />
  <path
     d="m 476.09,452.96 h -0.07 a 7.37,7.37 0 0 0 -6.17,3.38 7.37,7.37 0 0 0 -6.17,-3.38 h -0.07 a 7.34,7.34 0 0 0 -7.28,7.34 15.79,15.79 0 0 0 3.11,8.63 c 3.91,5.35 10.41,10 10.41,10 0,0 6.5,-4.68 10.41,-10 a 15.79,15.79 0 0 0 3.11,-8.63 7.34,7.34 0 0 0 -7.28,-7.34 z"
     id="path4151"
     inkscape:connector-curvature="0"
     style="fill:#0080ff" />
  <rect
     x="610.96002"
     y="327.47"
     width="256.39001"
     height="190.67"
     id="rect4153"
     style="fill:#dfe3ef" />
  <rect
     x="836.52319"
     y="387.04019"
     width="10.5"
     height="118"
     id="rect4175-6"
     style="opacity:0.2;fill:#0080ff" />
  <rect
     x="657.34998"
     y="427.39001"
     width="10.5"
     height="78.75"
     id="rect4157"
     style="fill:#ffffff" />
  <rect
     x="677.34998"
     y="388.14001"
     width="10.5"
     height="118"
     id="rect4159"
     style="fill:#dfe3ef" />
  <rect
     x="697.34998"
     y="360.14001"
     width="10.5"
     height="146"
     id="rect4161"
     style="fill:#ffffff" />
  <rect
     x="677.34998"
     y="360.14001"
     width="10.5"
     height="146"
     id="rect4163"
     style="fill:#0080ff" />
  <rect
     x="717.34998"
     y="425.89001"
     width="10.5"
     height="80.25"
     id="rect4165"
     style="fill:#0080ff" />
  <rect
     x="737.34998"
     y="405.14001"
     width="10.5"
     height="101"
     id="rect4167"
     style="fill:#ffffff" />
  <rect
     x="757.34998"
     y="373.64001"
     width="10.5"
     height="132.5"
     id="rect4169"
     style="fill:#ffffff" />
  <rect
     x="777.34998"
     y="447.14001"
     width="10.5"
     height="59"
     id="rect4171"
     style="opacity:0.2;fill:#0080ff" />
  <rect
     x="797.34998"
     y="419.89001"
     width="10.5"
     height="86.25"
     id="rect4173"
     style="opacity:0.2;fill:#0080ff" />
  <rect
     x="817.34998"
     y="388.14001"
     width="10.5"
     height="118"
     id="rect4175"
     style="opacity:0.2;fill:#0080ff" />
  <rect
     x="757.35"
     y="388.14"
     width="10.5"
     height="118"
     fill="#0080ff"
     opacity="0.2"
     id="rect4177" />
  <polygon
     points="816.01 309.05 826.29 303.27 831.11 306.16 927.45 769.88 921.68 770.98 909.64 760.53 816.01 309.05"
     fill="#65617d"
     id="polygon4179" />
  <polygon
     points="826.29 303.27 921.68 770.98 927.45 769.88 831.11 306.16 826.29 303.27"
     id="polygon4181"
     opacity="0.1" />
  <polygon
     points="755.38 328.62 828.7 335.64 828.7 341.31 755.77 334.96 755.38 328.62"
     fill="#65617d"
     id="polygon4183" />
  <polygon
     points="763.15 397.7 840.9 397.7 840.9 406 762.15 406 763.15 397.7"
     fill="#65617d"
     id="polygon4185" />
  <polygon
     points="770.28 470.13 848.77 467.01 858.59 470.13 858.59 475.45 788.85 479.12 770.92 479.12 770.28 470.13"
     fill="#65617d"
     id="polygon4187" />
  <polygon
     points="789.85 474.45 858.59 470.13 858.59 475.45 788.85 479.12 789.85 474.45"
     opacity="0.1"
     id="polygon4189" />
  <polygon
     points="770.28 470.13 789.85 474.45 788.85 479.12 770.92 479.12 770.28 470.13"
     opacity="0.1"
     id="polygon4191" />
  <polygon
     points="777.39 548.74 864.05 540.7 873.6 543.19 873.6 548.74 796.19 556.87 777.39 558.54 777.39 548.74"
     fill="#65617d"
     id="polygon4193" />
  <polygon
     points="795.86 552.2 864.99 545.25 873.6 543.19 873.6 548.74 796.19 556.87 795.86 552.2"
     opacity="0.1"
     id="polygon4195" />
  <polygon
     points="776.23 553.22 795.86 552.2 796.19 556.87 777.39 558.54 776.23 553.22"
     opacity="0.1"
     id="polygon4197" />
  <polygon
     points="781.51 626.92 879.24 613.94 887.62 617.27 887.62 623.61 803.32 636.29 783.51 636.29 781.51 626.92"
     fill="#65617d"
     id="polygon4199" />
  <polygon
     points="803.32 632.28 887.62 617.27 887.62 623.61 803.32 636.29 803.32 632.28"
     opacity="0.1"
     id="polygon4201" />
  <polygon
     points="782.68 632.39 803.32 632.28 803.32 636.29 783.51 636.29 782.68 632.39"
     opacity="0.1"
     id="polygon4203" />
  <polygon
     points="787.28 707.42 894.48 687.43 903.97 693.01 903.97 697.42 809.91 720.24 790.52 721.71 787.28 707.42"
     fill="#65617d"
     id="polygon4205" />
  <polygon
     points="809.91 715.7 903.97 693.01 903.97 697.42 809.91 720.24 809.91 715.7"
     opacity="0.1"
     id="polygon4207" />
  <polygon
     points="789.39 716.73 809.91 715.7 809.91 720.24 790.52 721.71 789.39 716.73"
     opacity="0.1"
     id="polygon4209" />
  <polygon
     points="762.21 297.49 753.54 299.42 784.86 798.06 794.01 801.43 801.24 801.43 762.21 297.49"
     id="polygon4211"
     fill="#65617d" />
  <polygon
     points="757.98 298.43 794.01 801.43 801.24 801.43 762.21 297.49 757.98 298.43"
     id="polygon4213"
     opacity="0.1" />
  <rect
     x="792.08118"
     y="227.05185"
     width="74"
     height="76.720001"
     id="rect4131-6"
     style="opacity:0.2;fill:#0080ff" />
  <rect
     x="761.09"
     y="232.45"
     width="74"
     height="76.72"
     transform="translate(-33.91 514.8) rotate(-37.11)"
     fill="#fff"
     id="rect4215" />
  <rect
     x="761.09"
     y="232.45"
     width="74"
     height="76.72"
     transform="translate(-33.91 514.8) rotate(-37.11)"
     fill="#dfe3ef"
     id="rect4217" />
  <path
     d="m 777.4158,263.11 a 17.555712,17.555712 0 0 1 -27.94675,-16.66202 1.4086982,1.4086982 0 0 1 1.60561,-1.18149 1.4238455,1.4238455 0 0 1 1.18149,1.62076 14.738316,14.738316 0 0 0 23.44801,14.04154 14.738316,14.738316 0 0 0 -16.66202,-24.23567 l 3.31725,4.37757 a 1.4238455,1.4238455 0 0 1 -2.25694,1.71164 l -4.21095,-5.55906 a 1.4238455,1.4238455 0 0 1 0.27265,-1.98429 17.570859,17.570859 0 0 1 21.20621,28.00735 z"
     id="path4221"
     style="fill:#0080ff;fill-opacity:1;stroke-width:1.51472926"
     inkscape:connector-curvature="0" />
  <path
     d="m 756.28532,246.75092 10.75458,-0.2575 a 2.6507762,2.6507762 0 1 1 0.13633,5.2864 2.5598924,2.5598924 0 0 1 -0.84825,-0.12118 l -10.28501,-3.18093 a 0.87854295,0.87854295 0 0 1 -0.5756,-1.10575 0.89369025,0.89369025 0 0 1 0.81795,-0.62104 z"
     id="path4223"
     style="fill:#0080ff;fill-opacity:1;stroke-width:1.51472926"
     inkscape:connector-curvature="0" />
  <path
     d="M872.18,493.32c-.74-2.68-1.22-5-1.22-5a10.54,10.54,0,0,0-1.37-5.11l0-.74h0l-.21-5.44a18.6,18.6,0,0,1,1.27-2.9c.91-1.75-.31-8-.31-8s-4-8.7-3.3-14.34-8.42-24.6-8.42-24.6a24.25,24.25,0,0,1,.57-5.54,4.26,4.26,0,0,0,.06-1.16.66.66,0,0,0,0-.14v0c-.27-3.69-3.46-10.51-3.46-10.51l-.11-13.22s1.56-7.86-1.88-18.19c-1.21-3.61-2-6.5-2.52-8.74-.06-.25-.11-.5-.16-.73,6.22-1.2,11-2.18,11-2.18s-4.22-15.06-6.78-17.62-4.84-10.85-4.84-10.85-1.69-10.69.25-13.91,2-8.64,2-8.64,4.58-3.6,5.11-5.14a25.15,25.15,0,0,0,1.31-6.81c-.07-1.8-.72-3.4-.56-4.35s-1.55-4.51-.83-6.25a4.5,4.5,0,0,0,.25-1.66s0,0,0-.05v0a23.3,23.3,0,0,0-.58-4.44,12.71,12.71,0,0,0-4.76-2.32l-.12-.4-.31-1.06a4.33,4.33,0,0,0-.47-.25l0-.39-.1-1.54.61-3.5c1.21-6.09-6.87-6.68-6.87-6.68A4.25,4.25,0,0,0,843,269c-1.64-.51.08,9.08.86,9.67a36.53,36.53,0,0,1,3.37,4.85h0l.14.24a3.45,3.45,0,0,0-.35.4l.39,2.08.06.32a8.36,8.36,0,0,0-1.2,2.24,4.7,4.7,0,0,1,1.31,3.37,10.8,10.8,0,0,0,.64,4.16c-.09-.09-1.17-1.18-2.19-.86s-3.88,1.29-3.88,1.29-2.15.46-1.93.93-1.37,2.62-1.37,2.62l-6-5.27c-.06-.17-.13-.33-.19-.5a13.81,13.81,0,0,1-.59-2.38,13.87,13.87,0,0,0,1.83-.67,4,4,0,0,0,1.57-1.09,6.25,6.25,0,0,0,.83-2.53,37.29,37.29,0,0,1,2-4.89,15.66,15.66,0,0,0,.83-8.67,5.76,5.76,0,0,0-1-2.49c-1-1.26-2.74-1.73-4-2.72s-2.15-2.55-3.64-3.27a6.94,6.94,0,0,0-4.42-.21A23.79,23.79,0,0,0,817.9,269a4.2,4.2,0,0,1-2.71,1,3.7,3.7,0,0,1-2-1.38s0-.06,0-.08l-.06-.08a10.13,10.13,0,0,0-.74,4.38q0,.34.06.69a1.94,1.94,0,0,0,0,.24,1.47,1.47,0,0,1,0,.21h0a1.71,1.71,0,0,1,0,.31,2.25,2.25,0,0,1-.52.8,5,5,0,0,0-.44.66,2.17,2.17,0,0,1,.07-.24,3.48,3.48,0,0,0-.54,1.86,1.89,1.89,0,0,0,.49,1.29,6.34,6.34,0,0,0,1,.72,10.43,10.43,0,0,0-.1,1.94,11.22,11.22,0,0,0,5.83,9.37c.08.16.15.32.22.49a13.92,13.92,0,0,1,1.3,6.28c0,.16,0,.31-.06.47l-.2.25h0s-9.57.46-11.91-1.5-5.5,5.21-5.5,5.21-3.41.8-4.12.16-4.72.09-4.72.09a8.67,8.67,0,0,0-6.07-2,17.77,17.77,0,0,0-4.49-2.27h0l-.12,0h0a5,5,0,0,0-2.17-.19s-4.86-3.71-6.32-5.75-8.29-9.54-8.33-9.57l0-.37-.12-1.13a3.43,3.43,0,0,1-.59.07l-.14-.38a20.74,20.74,0,0,0-1.52-3.14s0-1.43.35-1.8-.39-5.58-.39-5.58-4.62-9.76-8.14-2.2c0,0-7,5.07-.76,10.42,0,0,2.45,1.07,2.83,2,.25.6,1.13,2.24,1.72,3.33l.27.49-.07.06.13.93,0,.36c-1.11.69-1.85,1.36-1.65,1.84a10.55,10.55,0,0,1,.79,2.53s8.75,10.13,10,14.56c0,0,22.89,12.44,30.29,13.11l-1,6.69s-.24,4-.09,5.43-.58,7.92-.58,7.92-.91,9.55-1.94,10.92-.61,7.07-.61,7.07a47.93,47.93,0,0,1-1.16,8.13,20.68,20.68,0,0,0,0,8.09s-3.4,8.69,5.31,2.55c0,0,4.38-.44,9.42-.81,0,.17,0,.34,0,.51,0,.65,0,1.35,0,2.09.12,4.9.35,11.65.77,16.75.74,9,4.18,26.77,4.18,26.77l.34,9a13,13,0,0,0-.16,2.58,16.69,16.69,0,0,0,2.76,8.89l.92,6s1.77,3.88,1.89,6.23a3.48,3.48,0,0,1-.05.58,3.71,3.71,0,0,0,0,.92c0,2.72,1.9,9.16,1.9,9.16s.35,6.55,1.35,6.89-1,3.82-1.53,4.83c0-.06,0-.12,0-.18l-.11.2a4.81,4.81,0,0,0-.25,1.67,2.4,2.4,0,0,0,1.18,2.26c1.91,1.07,2.95,2,1.38,2.42a17,17,0,0,0-1.71.43c0-.07-.07-.15-.09-.21a1,1,0,0,0-.61,1.17,5,5,0,0,0,.67,2.2,23.91,23.91,0,0,0,2.85,4.74l.75-.11a3.76,3.76,0,0,1-.41.83,3.09,3.09,0,0,1-1.07,1,3.62,3.62,0,0,1-1.32.52,3.75,3.75,0,0,0-2.73,1.46c-.93,1.3-1.48,3.05.51,4.49l7.12,2.15S838.7,500.67,838,498s-1.23-5-1.23-5a10.85,10.85,0,0,0-1.16-4.77,6.36,6.36,0,0,0-.46-.69l.43-.06s.65-6,1.78-7.21c.27-.27.32-.48.25-.63.11-.33-.21-.51-.61-.6,0,.08-.05.15-.07.24a6,6,0,0,0-1.18-.09s-.51-3.12.72-4.31a1.2,1.2,0,0,0,.21-.94,5.07,5.07,0,0,0-.18-1.27.25.25,0,0,0,0,.07,46.5,46.5,0,0,0-3.11-7.25s-.2-2.85.54-4-.7-15.48-.7-15.48,0-6.95-1-10.15.81-7.07.81-7.07l0-.2,0,0s-.06-.43-.16-1.09l0,.07c-.27-1.83-.77-5.14-1.11-6.67-.47-2.17-.38-12.64-.38-12.64l1.59-4.53,3.44,7.57,3.73,10.13a8.77,8.77,0,0,1,1.86,4.3c0,.11,0,.22,0,.32a5.35,5.35,0,0,0,0,.69,6.15,6.15,0,0,0,1.16,3.62s1.07,4.81,2.49,6a5.49,5.49,0,0,1,1.51,3.56s1.94,7,2.77,8.17c.71,1,.85,3.88.88,4.75h0c0,.17,0,.26,0,.26s.32,2.5.4,4.62v.69A7.84,7.84,0,0,1,851,460a.36.36,0,0,0,0,.1c0-.12,0-.24,0-.36a17.82,17.82,0,0,0-.33,4.4c.05,2.53.55,5.51,2.15,7.21,2.77,2.94,4.42,2.49,4.42,2.49s-1.13,3.85-2.67,4.67a.61.61,0,0,0-.16.12,2.25,2.25,0,0,1,0-.22,1.82,1.82,0,0,0-.41,1.43,10.14,10.14,0,0,0,2.16,5.56,3.14,3.14,0,0,0,1.36.72l-.24.16a4,4,0,0,1-.53.28,2.85,2.85,0,0,1-.8.24,3.77,3.77,0,0,0-2.73,1.46c-.92,1.3-1.47,3.05.52,4.49l7.11,2.15S872.93,496,872.18,493.32Z"
     transform="translate(-32.15 -21.57)"
     fill="url(#9ace95f1-7a40-47d7-848c-20f8f7c52f52)"
     id="path4225" />
  <path
     d="M826.24,499.58l-6.89-2.16c-1.93-1.44-1.4-3.19-.5-4.49a3.63,3.63,0,0,1,2.64-1.46,3.16,3.16,0,0,0,1.28-.51,3,3,0,0,0,1-1,5,5,0,0,0,.67-2.66s7.38-2.47,9.5-.36a5.22,5.22,0,0,1,1,1.29,11,11,0,0,1,1.13,4.76s.48,2.36,1.2,5S826.24,499.58,826.24,499.58Z"
     transform="translate(-32.15 -21.57)"
     fill="#2d293d"
     id="path4227" />
  <path
     d="M859.37,495l-6.89-2.16c-1.93-1.45-1.4-3.2-.51-4.49a3.57,3.57,0,0,1,2.64-1.46,2.28,2.28,0,0,0,.77-.24,4.27,4.27,0,0,0,.51-.27c1.86-1.12,1.72-3.69,1.72-3.69s7.37-2.47,9.5-.36a5.25,5.25,0,0,1,.75.94,10.88,10.88,0,0,1,1.34,5.12s.47,2.36,1.19,5S859.37,495,859.37,495Z"
     transform="translate(-32.15 -21.57)"
     fill="#2d293d"
     id="path4229" />
  <path
     d="M834,486.92a5.22,5.22,0,0,1,1,1.29h0l-11.13,1.73a5,5,0,0,0,.67-2.66S831.86,484.81,834,486.92Z"
     transform="translate(-32.15 -21.57)"
     opacity="0.1"
     id="path4231" />
  <path
     d="M867.86,483.23l.08,2.09c-1.63,2.94-10.06,2.63-12.56,1.29a4.27,4.27,0,0,0,.51-.27c1.86-1.12,1.72-3.69,1.72-3.69s7.37-2.47,9.5-.36A5.25,5.25,0,0,1,867.86,483.23Z"
     transform="translate(-32.15 -21.57)"
     opacity="0.1"
     id="path4233" />
  <path
     d="M868.84,474.16a19,19,0,0,0-1.22,2.9l.29,7.5c-1.78,3.21-11.7,2.55-13.1.89s-3-6.07-1.5-6.89,2.58-4.67,2.58-4.67-1.6.45-4.28-2.5-2.18-9.71-1.77-11.35-.27-7-.27-7-.05-3.8-.86-5-2.69-8.17-2.69-8.17a5.6,5.6,0,0,0-1.47-3.56c-1.38-1.18-2.42-6-2.42-6a6.28,6.28,0,0,1-1.11-4c.2-2.39-1.8-4.88-1.8-4.88l-3.63-10.14-3.33-7.58-1.54,4.53s-.08,10.47.39,12.64,1.26,7.95,1.26,7.95-1.76,3.87-.78,7.07,1,10.14,1,10.14,1.41,14.32.69,15.48-.51,4-.51,4,4.22,8.21,3,9.4-.69,4.31-.69,4.31,2.66-.11,1.56,1.08-1.72,7.2-1.72,7.2l-11.44,1.77a24.3,24.3,0,0,1-2.76-4.74c-1.65-3.46.17-3.15,1.68-3.59s.51-1.35-1.34-2.42-.9-3.68-.9-3.68,2.58-4.76,1.61-5.1-1.31-6.9-1.31-6.9-2.2-7.71-1.8-9.82-1.8-7.07-1.8-7.07l-.89-6a16.46,16.46,0,0,1-2.53-11.22l-.35-9.22s-3.35-17.76-4.08-26.77c-.46-5.77-.7-13.66-.81-18.59-.06-2.76-.08-4.59-.08-4.59L849,363.69a33.71,33.71,0,0,0,1,6.07c.5,2.24,1.27,5.13,2.44,8.74,3.35,10.34,1.84,18.2,1.84,18.2l.13,13.22s4,8.7,3.31,11.76a25.6,25.6,0,0,0-.55,5.54s8.82,19,8.18,24.62,3.21,14.34,3.21,14.34S869.73,472.41,868.84,474.16Z"
     transform="translate(-32.15 -21.57)"
     fill="#575988"
     id="path4235" />
  <path
     d="M843.47,425.56l12.43-2.14S849.1,430.91,843.47,425.56Z"
     transform="translate(-32.15 -21.57)"
     opacity="0.05"
     id="path4237" />
  <path
     d="M853.62,411.28s.6,4.4-2,6.17C851.58,417.45,856.39,416.5,853.62,411.28Z"
     transform="translate(-32.15 -21.57)"
     opacity="0.1"
     id="path4239" />
  <path
     d="M852.32,397.25s-10.12,9-13.94,8.43S852.32,397.25,852.32,397.25Z"
     transform="translate(-32.15 -21.57)"
     opacity="0.1"
     id="path4241" />
  <path
     d="M828.14,430.2s-7.86,2.11-8,5.3S828.14,430.2,828.14,430.2Z"
     transform="translate(-32.15 -21.57)"
     opacity="0.1"
     id="path4243" />
  <path
     d="M831.41,469.75s-11.13,2.52-7.89,3.82a54.29,54.29,0,0,0,8.5,2.24S835.64,475.86,831.41,469.75Z"
     transform="translate(-32.15 -21.57)"
     opacity="0.05"
     id="path4245" />
  <g
     opacity="0.05"
     id="g4269">
    <path
       d="M821.34,475.92a2.21,2.21,0,0,1-1.09-1.59l-.11.21s-.94,2.6.91,3.67l.6.37c.33-.08.69-.14,1-.24C824.19,477.9,823.19,477,821.34,475.92Z"
       transform="translate(-32.15 -21.57)"
       id="path4247" />
    <path
       d="M835.75,474.6c.3-.29.26-1,0-2a5.36,5.36,0,0,0-.53,2.77A2.26,2.26,0,0,1,835.75,474.6Z"
       transform="translate(-32.15 -21.57)"
       id="path4249" />
    <path
       d="M832.21,427.4a13,13,0,0,0-.63,3.53,14.09,14.09,0,0,1,.78-2.44S832.3,428.07,832.21,427.4Z"
       transform="translate(-32.15 -21.57)"
       id="path4251" />
    <path
       d="M857.68,421.43a4.82,4.82,0,0,0,.07-1.05c-.12.72-.19,1.38-.24,2C857.56,422,857.62,421.74,857.68,421.43Z"
       transform="translate(-32.15 -21.57)"
       id="path4253" />
    <path
       d="M833.24,461.19a6.35,6.35,0,0,0,.2-2.12,7.29,7.29,0,0,0-.45,2.68A2.63,2.63,0,0,1,833.24,461.19Z"
       transform="translate(-32.15 -21.57)"
       id="path4255" />
    <path
       d="M836.28,479a37.07,37.07,0,0,0-1.08,5.89l-11.44,1.77a24.3,24.3,0,0,1-2.76-4.74c-.15-.31-.26-.58-.36-.83-.67.34-.92,1.07.07,3.12a23.6,23.6,0,0,0,2.76,4.75l11.43-1.78s.63-6,1.72-7.2C837.16,479.41,836.79,479.14,836.28,479Z"
       transform="translate(-32.15 -21.57)"
       id="path4257" />
    <path
       d="M820.44,462.54s.35,6.55,1.32,6.89h0c.44-1.11.72-2.15.29-2.3-1-.35-1.31-6.9-1.31-6.9s-2.2-7.71-1.81-9.82-1.79-7.07-1.79-7.07l-.9-6a16.44,16.44,0,0,1-2.52-11.23l-.36-9.21s-3.35-17.76-4.07-26.77c-.47-5.77-.7-13.66-.81-18.59,0-.89,0-1.68-.05-2.34l-.33,0s0,1.83.08,4.6c.11,4.92.35,12.81.81,18.58.73,9,4.08,26.77,4.08,26.77l.35,9.22A16.46,16.46,0,0,0,816,439.68l.89,6s2.19,5,1.8,7.07S820.44,462.54,820.44,462.54Z"
       transform="translate(-32.15 -21.57)"
       id="path4259" />
    <path
       d="M855.1,482.9a11.19,11.19,0,0,1-2-4.45c-1.14,1.11.37,5.17,1.7,6.74s11.31,2.33,13.09-.88l-.07-1.81C865.36,485.14,856.42,484.47,855.1,482.9Z"
       transform="translate(-32.15 -21.57)"
       id="path4261" />
    <path
       d="M869.13,471.61a17.81,17.81,0,0,0-1.22,2.9l.05,1.33a20.86,20.86,0,0,1,.88-1.94,5.84,5.84,0,0,0,.32-2.37Z"
       transform="translate(-32.15 -21.57)"
       id="path4263" />
    <path
       d="M855.33,473.64a18.55,18.55,0,0,0,.85-2.3s-1.6.45-4.29-2.5c-1.95-2.14-2.21-6.31-2-9-.42,1.63-.92,8.41,1.76,11.35C853.36,473.06,854.64,473.54,855.33,473.64Z"
       transform="translate(-32.15 -21.57)"
       id="path4265" />
    <path
       d="M849.56,452.76a50.54,50.54,0,0,1,.41,5.62c0-.37.11-.67.16-.89.42-1.63-.27-7-.27-7s-.06-3.8-.86-5-2.7-8.17-2.7-8.17a5.59,5.59,0,0,0-1.47-3.56c-1.37-1.18-2.41-6-2.41-6a6.17,6.17,0,0,1-1.11-4c.19-2.39-1.81-4.88-1.81-4.88l-3.62-10.14-3.34-7.58L831,405.61v1.45l1.25-3.68,3.34,7.58,3.62,10.13s2,2.49,1.81,4.88a6.21,6.21,0,0,0,1.1,4s1,4.81,2.42,6a5.57,5.57,0,0,1,1.47,3.55s1.89,7,2.69,8.18S849.56,452.76,849.56,452.76Z"
       transform="translate(-32.15 -21.57)"
       id="path4267" />
  </g>
  <path
     d="M850.81,277.66l-.58,3.49.1,1.55.08,1.13-3.95.56-.48-.8h0a35.24,35.24,0,0,0-3.26-4.86c-.76-.59-2.44-10.18-.85-9.67a4.17,4.17,0,0,1,2.29,1.91S852,271.57,850.81,277.66Z"
     transform="translate(-32.15 -21.57)"
     fill="#ffcdd3"
     id="path4271" />
  <path
     d="M850.41,283.83l-3.95.56-.48-.8h0a3.49,3.49,0,0,1,4.35-.89Z"
     transform="translate(-32.15 -21.57)"
     opacity="0.1"
     id="path4273" />
  <path
     d="M851.48,285.67l-5.18,1.42-.14-.78-.38-2.08a3.61,3.61,0,0,1,5-.89l.3,1.06Z"
     transform="translate(-32.15 -21.57)"
     fill="#dce6f2"
     id="path4275" />
  <path
     d="M766.51,281.28l-5.46,3.21-.55-1c-.57-1.09-1.43-2.74-1.67-3.33-.37-.91-2.74-2-2.74-2-6.06-5.36.72-10.42.72-10.42,3.4-7.55,7.89,2.21,7.89,2.21s.77,5.21.38,5.58-.34,1.8-.34,1.8a20.81,20.81,0,0,1,1.47,3.14C766.41,281,766.51,281.28,766.51,281.28Z"
     transform="translate(-32.15 -21.57)"
     fill="#ffcdd3"
     id="path4277" />
  <path
     d="M766.51,281.28l-5.46,3.21-.55-1c.76-.69,3.47-3.06,4.39-3a7.49,7.49,0,0,0,1.32,0C766.41,281,766.51,281.28,766.51,281.28Z"
     transform="translate(-32.15 -21.57)"
     opacity="0.1"
     id="path4279" />
  <path
     d="M767.14,283,761,286.28l-.17-1.35-.13-.92s3.52-3.26,4.59-3.18a5.5,5.5,0,0,0,1.64-.07l.12,1.13Z"
     transform="translate(-32.15 -21.57)"
     fill="#dce6f2"
     id="path4281" />
  <path
     d="M836.5,301.28s-27.22,4.14-22.18,2.28c3.52-1.29,4.84-3.61,5-6.13a14.37,14.37,0,0,0-1.26-6.29,26.85,26.85,0,0,0-2.63-4.84s20.46-12.3,16.68-1.69a16.85,16.85,0,0,0-1,5,14.06,14.06,0,0,0,.73,5A15,15,0,0,0,836.5,301.28Z"
     transform="translate(-32.15 -21.57)"
     fill="#ffcdd3"
     id="path4283" />
  <path
     d="M832.15,284.61a16.85,16.85,0,0,0-1,5c-1.9,1.73-4.07,1.7-6.84,1.81-2.13.08-4.47.69-6.21-.28a26.85,26.85,0,0,0-2.63-4.84S835.93,274,832.15,284.61Z"
     transform="translate(-32.15 -21.57)"
     opacity="0.1"
     id="path4285" />
  <circle
     cx="791.39"
     cy="259.28"
     r="11.31"
     fill="#ffcdd3"
     id="circle4287" />
  <path
     d="M836.5,301.28s-27.22,4.14-22.18,2.28c3.52-1.29,4.84-3.61,5-6.13,1.31-1.52,4-2.69,5.74-3.33a8.21,8.21,0,0,1,4.95-.27,7,7,0,0,1,1.83.77A15,15,0,0,0,836.5,301.28Z"
     transform="translate(-32.15 -21.57)"
     opacity="0.1"
     id="path4289" />
  <path
     d="M851.48,285.67l-5.18,1.42-.14-.78a4.62,4.62,0,0,1,5-1.91Z"
     transform="translate(-32.15 -21.57)"
     opacity="0.1"
     id="path4291" />
  <path
     d="M767.14,283,761,286.28l-.17-1.35a46.47,46.47,0,0,1,6.22-3Z"
     transform="translate(-32.15 -21.57)"
     opacity="0.1"
     id="path4293" />
  <path
     d="M850,369.76c-10.53,2.08-25.51,4.84-27.93,4.2-2-.53-8.34-.22-13.85.18-.06-2.76-.08-4.59-.08-4.59L849,363.69A33.71,33.71,0,0,0,850,369.76Z"
     transform="translate(-32.15 -21.57)"
     opacity="0.1"
     id="path4295" />
  <path
     d="M860.43,366.87S825.79,374.2,822,373.2s-23,1-23,1c-8.42,6.13-5.14-2.56-5.14-2.56a21.14,21.14,0,0,1,0-8.09A49.25,49.25,0,0,0,795,355.4s-.41-5.69.58-7.06,1.86-10.92,1.86-10.92.7-6.5.56-7.92.07-5.43.07-5.43l1-6.69c-7.16-.68-29.33-13.15-29.33-13.15-1.22-4.42-9.7-14.56-9.7-14.56a10.72,10.72,0,0,0-.76-2.54c-.63-1.5,7.8-4.87,7.8-4.87s6.67,7.55,8.08,9.59,6.12,5.75,6.12,5.75a4.56,4.56,0,0,1,2.1.2.45.45,0,0,1,.11,0h0a16.91,16.91,0,0,1,4.35,2.28,8.24,8.24,0,0,1,5.87,2s3.88-.72,4.57-.08,4-.15,4-.15,3.05-7.16,5.32-5.2,11.53,1.51,11.53,1.51c1.17-1.69,4.13-3,6-3.67a8.22,8.22,0,0,1,4.95-.27,6.4,6.4,0,0,1,2,.87l5.83,5.29s1.54-2.15,1.33-2.62,1.87-.92,1.87-.92,2.72-1,3.75-1.29,2,.77,2.13.86a11,11,0,0,1-.64-4.15,4.75,4.75,0,0,0-1.27-3.38c3-8.3,10.78-1.75,10.78-1.75s1,4.44.33,6.18,1,5.29.81,6.24.48,2.55.55,4.36a25.92,25.92,0,0,1-1.26,6.8c-.51,1.55-4.94,5.14-4.94,5.14s-.07,5.43-2,8.64-.23,13.9-.23,13.9,2.23,8.29,4.7,10.86S860.43,366.87,860.43,366.87Z"
     transform="translate(-32.15 -21.57)"
     fill="#656691"
     id="path4297" />
  <path
     d="M807.2,306.31s-1.17-3.09-2.13-3.34a22.45,22.45,0,0,1-2.8-1.13l.57-1.19s3.6.84,4.21,1.86S807.2,306.31,807.2,306.31Z"
     transform="translate(-32.15 -21.57)"
     opacity="0.1"
     id="path4299" />
  <path
     d="M787.84,300.11c-.16,1-8.58,2.14-8.58,2.14l4.11-4.45h0l.11,0h0A16.91,16.91,0,0,1,787.84,300.11Z"
     transform="translate(-32.15 -21.57)"
     opacity="0.1"
     id="path4301" />
  <circle
     cx="730.72"
     cy="266.44"
     r="0.76"
     fill="#575988"
     id="circle4303" />
  <circle
     cx="731.75"
     cy="267.92"
     r="0.76"
     fill="#575988"
     id="circle4305" />
  <circle
     cx="732.76"
     cy="269.29"
     r="0.76"
     fill="#575988"
     id="circle4307" />
  <circle
     cx="733.81"
     cy="270.77"
     r="0.76"
     fill="#575988"
     id="circle4309" />
  <circle
     cx="823.36"
     cy="267.24"
     r="0.62"
     fill="#575988"
     id="circle4311" />
  <circle
     cx="823.51"
     cy="268.64"
     r="0.62"
     fill="#575988"
     id="circle4313" />
  <circle
     cx="823.65"
     cy="270.03"
     r="0.62"
     fill="#575988"
     id="circle4315" />
  <path
     d="M808.24,332.06c-.1-.11,22.36,26.11,38.39,9.84C846.63,341.9,820.49,346.48,808.24,332.06Z"
     transform="translate(-32.15 -21.57)"
     opacity="0.1"
     id="path4317" />
  <path
     d="M796.47,346.59s12.83-.14,14.32,3.49l.14,3.84a2.43,2.43,0,0,1-2.38.09c-1.32-.65-9.22-4.29-11.88-2.29Z"
     transform="translate(-32.15 -21.57)"
     opacity="0.1"
     id="path4319" />
  <path
     d="M796.71,346.58s12.27-.14,13.69,3.33l.14,3.66a2.35,2.35,0,0,1-2.28.08c-1.26-.61-8.82-4.08-11.36-2.18Z"
     transform="translate(-32.15 -21.57)"
     fill="#656691"
     id="path4321" />
  <path
     d="M802.4,318.49a41.14,41.14,0,0,0,5.3,8.34,33.42,33.42,0,0,0,8.07,7.21S802.68,320.25,802.4,318.49Z"
     transform="translate(-32.15 -21.57)"
     opacity="0.1"
     id="path4323" />
  <path
     d="M797.63,303.76s2.5,9.15,8.13,12.07Z"
     transform="translate(-32.15 -21.57)"
     opacity="0.1"
     id="path4325" />
  <path
     d="M794.39,304.82c-.06-.17-1.62,7.37,7.54,11.16C801.93,316,798.06,314.83,794.39,304.82Z"
     transform="translate(-32.15 -21.57)"
     opacity="0.1"
     id="path4327" />
  <path
     d="M850.11,296.48c-.14,0,4.56,2.75,5.85,4C856,300.53,852.81,296.18,850.11,296.48Z"
     transform="translate(-32.15 -21.57)"
     opacity="0.1"
     id="path4329" />
  <path
     d="M820.87,291.22a2.45,2.45,0,0,0,.94,1.49,2.47,2.47,0,0,0,1.08.2c3.45.08,7.05.09,10.18-1.36a3.87,3.87,0,0,0,1.52-1.09,6.38,6.38,0,0,0,.81-2.53,35.55,35.55,0,0,1,1.9-4.89,16.18,16.18,0,0,0,.79-8.66,5.92,5.92,0,0,0-1-2.49c-1-1.27-2.65-1.74-3.9-2.73s-2.09-2.55-3.53-3.28a6.59,6.59,0,0,0-4.28-.21,22.55,22.55,0,0,0-7.85,3.29,3.94,3.94,0,0,1-2.62,1,3.66,3.66,0,0,1-2-1.42,10.44,10.44,0,0,0-.65,4.95,2.36,2.36,0,0,1,0,.75,2.25,2.25,0,0,1-.5.8c-.81,1-1.28,2.6-.4,3.57.38.42,1,.64,1.33,1.06.66.77.49,1.92.52,2.94a1.48,1.48,0,0,0,.28,1,1.45,1.45,0,0,0,1.41.28,4,4,0,0,1,1.48-.2,2.52,2.52,0,0,1,1.33.95A17.57,17.57,0,0,1,820.87,291.22Z"
     transform="translate(-32.15 -21.57)"
     fill="#2d293d"
     id="path4331" />
  <g
     opacity="0.1"
     id="g4337">
    <path
       d="M834.93,289.58a3.86,3.86,0,0,1-1.51,1.09c-3.14,1.45-6.73,1.43-10.19,1.35a2.3,2.3,0,0,1-1.07-.2,2.35,2.35,0,0,1-.94-1.49,17.72,17.72,0,0,0-3.14-6.58,2.45,2.45,0,0,0-1.33-.94,3.79,3.79,0,0,0-1.48.2,1.49,1.49,0,0,1-1.41-.28,1.54,1.54,0,0,1-.29-1c0-1,.15-2.17-.52-2.94-.37-.43-.94-.64-1.33-1.07a2.22,2.22,0,0,1-.3-2.26,2.61,2.61,0,0,0,0,3c.39.42,1,.63,1.33,1.06.67.77.5,1.92.52,2.94a1.54,1.54,0,0,0,.29,1,1.44,1.44,0,0,0,1.41.28,4,4,0,0,1,1.48-.2,2.52,2.52,0,0,1,1.33.95,17.6,17.6,0,0,1,3.14,6.57,2.4,2.4,0,0,0,.94,1.5,2.43,2.43,0,0,0,1.07.2c3.46.08,7,.09,10.19-1.36a3.77,3.77,0,0,0,1.51-1.09,3,3,0,0,0,.46-.93Z"
       transform="translate(-32.15 -21.57)"
       id="path4333" />
    <path
       d="M812.3,274a1.55,1.55,0,0,0,.32-.59,2,2,0,0,0,0-.74,10.57,10.57,0,0,1,.37-4.11l-.06-.07a10.45,10.45,0,0,0-.66,4.95A2.63,2.63,0,0,1,812.3,274Z"
       transform="translate(-32.15 -21.57)"
       id="path4335" />
  </g>
  <path
     d="M819.12,298.15s14.2,1.33,15.38-.85"
     transform="translate(-32.15 -21.57)"
     opacity="0.1"
     id="path4339" />
  <path
     d="M846.35,291.25s7.85-.3,9.69,2.58"
     transform="translate(-32.15 -21.57)"
     opacity="0.1"
     id="path4341" />
  <rect
     x="860.86"
     y="640.54"
     width="74"
     height="76.72"
     transform="translate(-31.04 -23.05) rotate(0.09)"
     fill="#fff"
     id="rect4343" />
  <rect
     style="opacity:0.1;fill:#0080ff"
     x="831.11584"
     y="627.08673"
     width="74"
     height="76.720001"
     transform="rotate(-0.29203715)"
     id="rect4133-5-5" />
  <rect
     x="860.86"
     y="640.54"
     width="74"
     height="76.72"
     transform="translate(-31.04 -23.05) rotate(0.09)"
     id="rect4345"
     fill="#fff" />
  <path
     d="M 847.42218,655.34597 H 864.6722 V 638.11 c -0.39364,0 -0.82946,0 -1.23716,0 A 16.040977,16.040977 0 0 0 847.38,654.15098 c 0,0.37958 0.0141,0.8154 0.0422,1.19499 z"
     id="path4349"
     style="fill:#0080ff;fill-opacity:1;stroke-width:1.40587008"
     inkscape:connector-curvature="0" />
  <path
     d="m 853.38307,666.67728 a 16.055036,16.055036 0 1 0 13.7494,-26.05077 v 17.19379 h -17.23596 a 15.998801,15.998801 0 0 0 3.48656,8.85698 z"
     id="path4351"
     style="fill:#0080ff;fill-opacity:1;stroke-width:1.40587008"
     inkscape:connector-curvature="0" />
  <ellipse
     style="opacity:0.1;fill:#0080ff"
     cx="264.77533"
     cy="821.22235"
     rx="199.97"
     ry="20.379999"
     id="ellipse31" />
  <ellipse
     style="fill:#0080ff"
     cx="66.945335"
     cy="771.40234"
     rx="40.209999"
     ry="6.8000002"
     id="ellipse43-3" />
  <path
     inkscape:connector-curvature="0"
     style="fill:#0080ff"
     d="m 83.565338,760.27236 a 11.63,11.63 0 0 0 3.84,-5.78 c 0.49,-2.3 -0.49,-5 -2.68,-5.89 -2.46,-0.95 -5.09,0.76 -7.08,2.48 -1.99,1.72 -4.28,3.69 -6.89,3.32 a 10.47,10.47 0 0 0 3.21,-9.81 4,4 0 0 0 -0.9,-2 c -1.36,-1.46 -3.84,-0.83 -5.48,0.32 -5.2,3.66 -6.65,10.72 -6.67,17.08 -0.53,-2.3 -0.09,-4.69 -0.1,-7 -0.01,-2.31 -0.66,-5 -2.64,-6.22 a 8,8 0 0 0 -4,-0.95 c -2.34,-0.08 -4.94,0.15 -6.54,1.86 -2,2.12 -1.47,5.69 0.26,8 1.73,2.31 4.35,3.8 6.76,5.42 a 14.92,14.92 0 0 1 4.84,4.61 4.41,4.41 0 0 1 0.36,0.82 h 14.65 a 40.77,40.77 0 0 0 9.06,-6.26 z"
     id="path45-6" />
  <rect
     style="opacity:0.1;fill:#0080ff"
     x="229.7406"
     y="713.49365"
     width="74"
     height="76.720001"
     transform="rotate(-0.29203715)"
     id="rect4133-5" />
  <path
     inkscape:connector-curvature="0"
     style="fill:#fbbebe"
     d="m 332.62534,655.40236 c 0.58,6.32 -4.19,12.44 -2.8,18.62 0.3,1.32 0.87,2.57 1.08,3.9 0.57,3.67 -1.62,7.15 -3.71,10.22 l -17.94,26.34 a 17.07,17.07 0 0 1 -2.57,3.17 c -3.44,3 -8.58,2.73 -13.09,3.64 a 22.45,22.45 0 0 0 -8.76,3.88 0.57,0.57 0 0 0 -0.12,0.79 7.55,7.55 0 0 0 6.52,3.06 c 0.47,0.62 0,1.53 -0.65,2 -1,0.67 -2.29,0.84 -2.48,2.48 a 2.68,2.68 0 0 0 0.33,1.64 5.07,5.07 0 0 0 3.14,2.18 c 6.21,1.9 12.93,-1.43 17.57,-6 4.64,-4.57 8,-10.27 12.56,-14.9 2.53,-2.55 5.4,-4.75 8,-7.23 5.2,-4.94 9.23,-11 13.13,-17 a 18.87,18.87 0 0 0 2.84,-5.78 c 0.48,-2.06 0.26,-4.23 0.82,-6.27 0.72,-2.66 2.68,-4.79 4.3,-7 3.19,-4.38 5.31,-9.75 4.89,-15.15 -0.42,-5.4 -3.76,-10.74 -8.86,-12.57 a 7.93,7.93 0 0 0 -5,-0.31 c -2.09,0.65 -3.63,2.38 -5.06,4 l -3.4,3.94 a 9.08,9.08 0 0 0 -2,3 3.15,3.15 0 0 0 0.7,3.35"
     id="path139" />
  <path
     inkscape:connector-curvature="0"
     style="opacity:0.05"
     d="m 332.62534,655.40236 c 0.58,6.32 -4.19,12.44 -2.8,18.62 0.3,1.32 0.87,2.57 1.08,3.9 0.57,3.67 -1.62,7.15 -3.71,10.22 l -17.94,26.34 a 17.07,17.07 0 0 1 -2.57,3.17 c -3.44,3 -8.58,2.73 -13.09,3.64 a 22.45,22.45 0 0 0 -8.76,3.88 0.57,0.57 0 0 0 -0.12,0.79 7.55,7.55 0 0 0 6.52,3.06 c 0.47,0.62 0,1.53 -0.65,2 -1,0.67 -2.29,0.84 -2.48,2.48 a 2.68,2.68 0 0 0 0.33,1.64 5.07,5.07 0 0 0 3.14,2.18 c 6.21,1.9 12.93,-1.43 17.57,-6 4.64,-4.57 8,-10.27 12.56,-14.9 2.53,-2.55 5.4,-4.75 8,-7.23 5.2,-4.94 9.23,-11 13.13,-17 a 18.87,18.87 0 0 0 2.84,-5.78 c 0.48,-2.06 0.26,-4.23 0.82,-6.27 0.72,-2.66 2.68,-4.79 4.3,-7 3.19,-4.38 5.31,-9.75 4.89,-15.15 -0.42,-5.4 -3.76,-10.74 -8.86,-12.57 a 7.93,7.93 0 0 0 -5,-0.31 c -2.09,0.65 -3.63,2.38 -5.06,4 l -3.4,3.94 a 9.08,9.08 0 0 0 -2,3 3.15,3.15 0 0 0 0.7,3.35"
     id="path141" />
  <path
     inkscape:connector-curvature="0"
     style="fill:#a1616a"
     d="m 195.96534,682.25236 c 1,3.16 2,6.32 3.21,9.4 a 79.54,79.54 0 0 0 8.31,15.16 109.23,109.23 0 0 0 6.87,9 c 3.06,3.61 6.48,7.24 7.56,11.85 0.63,2.66 0.42,5.45 0.68,8.17 0.26,2.72 1.15,5.61 3.35,7.24 a 12.45,12.45 0 0 0 5.52,1.82 c 1.38,0.22 3.11,0.29 3.83,-0.91 a 3.41,3.41 0 0 0 0.38,-1.58 l 0.34,-4 c 0.07,-0.86 0.37,-2 1.23,-2 0.86,0 1.3,1.11 2,1.62 a 2.17,2.17 0 0 0 3,-1 5,5 0 0 0 0.08,-3.5 16.62,16.62 0 0 0 -8.53,-10.57 25.64,25.64 0 0 1 -4.16,-2.17 14.15,14.15 0 0 1 -3.27,-4.12 c -7.56,-12.45 -15.16,-25 -20.5,-38.51 a 28.49,28.49 0 0 1 -2.11,-7.59 49,49 0 0 1 0.33,-8 45.79,45.79 0 0 0 -1.32,-14.28 11.23,11.23 0 0 0 -1.37,-3.47 c -2.19,-3.34 -7.36,-3.83 -10.62,-1.53 a 10.94,10.94 0 0 0 -4.22,7.72 c -0.24,2.69 1.32,5.5 2.11,8 q 3.67,11.62 7.3,23.25 z"
     id="path143" />
  <path
     inkscape:connector-curvature="0"
     style="opacity:0.05"
     d="m 195.96534,682.25236 c 1,3.16 2,6.32 3.21,9.4 a 79.54,79.54 0 0 0 8.31,15.16 109.23,109.23 0 0 0 6.87,9 c 3.06,3.61 6.48,7.24 7.56,11.85 0.63,2.66 0.42,5.45 0.68,8.17 0.26,2.72 1.15,5.61 3.35,7.24 a 12.45,12.45 0 0 0 5.52,1.82 c 1.38,0.22 3.11,0.29 3.83,-0.91 a 3.41,3.41 0 0 0 0.38,-1.58 l 0.34,-4 c 0.07,-0.86 0.37,-2 1.23,-2 0.86,0 1.3,1.11 2,1.62 a 2.17,2.17 0 0 0 3,-1 5,5 0 0 0 0.08,-3.5 16.62,16.62 0 0 0 -8.53,-10.57 25.64,25.64 0 0 1 -4.16,-2.17 14.15,14.15 0 0 1 -3.27,-4.12 c -7.56,-12.45 -15.16,-25 -20.5,-38.51 a 28.49,28.49 0 0 1 -2.11,-7.59 49,49 0 0 1 0.33,-8 45.79,45.79 0 0 0 -1.32,-14.28 11.23,11.23 0 0 0 -1.37,-3.47 c -2.19,-3.34 -7.36,-3.83 -10.62,-1.53 a 10.94,10.94 0 0 0 -4.22,7.72 c -0.24,2.69 1.32,5.5 2.11,8 q 3.67,11.62 7.3,23.25 z"
     id="path145" />
  <path
     inkscape:connector-curvature="0"
     style="fill:#3f3d56"
     d="m 347.71534,800.99236 c -3.92,2.39 -8.8,2.53 -13.36,2 -0.73,-0.09 -1.6,-0.15 -2.07,0.42 -0.68,0.82 0.12,2 0.95,2.7 a 19.88,19.88 0 0 0 9.18,3.77 62.62,62.62 0 0 0 9,0.6 c 8.19,0.14 16.42,0.27 24.53,-0.91 a 3.25,3.25 0 0 0 1.34,-0.39 2.54,2.54 0 0 0 1,-1.54 6.13,6.13 0 0 0 -2.14,-5.84 18,18 0 0 0 -5.72,-3.07 l -7.12,-2.77 c -1.67,-0.65 -4.36,-2.38 -6.17,-2.24 -3.36,0.22 -6.59,5.61 -9.42,7.27 z"
     id="path147" />
  <path
     inkscape:connector-curvature="0"
     style="fill:#3f3d56"
     d="m 365.60534,817.72236 a 17.49,17.49 0 0 1 -11.95,4.46 c -1.12,0 -2.68,0.21 -2.68,1.33 a 1.76,1.76 0 0 0 0.32,0.93 11,11 0 0 0 6.18,4.84 22,22 0 0 0 7.46,0.47 l 7.3,-0.38 c 1.38,-0.07 2.77,-0.14 4.14,-0.31 1.37,-0.17 2.86,-0.45 4.29,-0.67 a 57.22,57.22 0 0 1 10.63,-0.5 3.09,3.09 0 0 0 2.62,-0.7 c 0.65,-0.82 0.27,-2 0.06,-3 -0.44,-2.11 0,-4.33 -0.41,-6.46 -0.7,-3.72 -3.9,-6.58 -7.45,-7.93 -3.28,-1.25 -9.1,-2.68 -12.21,-0.6 -3.34,2.21 -5.35,5.85 -8.3,8.52 z"
     id="path149" />
  <path
     inkscape:connector-curvature="0"
     style="fill:#464353"
     d="m 351.18534,723.26236 c -3,3.95 -6,8.51 -5.3,13.39 0.4,2.63 1.87,4.95 2.95,7.39 a 52.09,52.09 0 0 1 3,10.38 c 1.11,5.17 2.22,10.35 2.91,15.59 a 97.36,97.36 0 0 1 0.65,17.9 c -0.09,1.44 -0.25,3 -1.25,4 -0.4,0.4 -0.92,0.73 -1.09,1.27 a 2.15,2.15 0 0 0 0.23,1.5 16.61,16.61 0 0 0 8.9,8.19 34.09,34.09 0 0 0 12.1,2.26 3.4,3.4 0 0 0 1.62,-0.21 3.12,3.12 0 0 0 1.25,-1.43 c 3,-5.7 1.33,-12.58 1.38,-19 0,-5.37 1.3,-10.69 1.07,-16.06 -0.19,-4.3 -1.34,-8.5 -1.76,-12.79 -0.69,-7 0.6,-14.1 1.89,-21.05 1,-5.32 2,-10.65 3.25,-15.92 a 30.36,30.36 0 0 1 3.44,-9.24 c 1.4,-2.21 3.3,-4.06 4.9,-6.14 a 27.87,27.87 0 0 0 5.48,-20.37 c -0.1,-0.72 -10.3,2.58 -11.18,3 a 34.66,34.66 0 0 0 -10,6.41 c -2.36,2.24 -4.21,5.24 -6.28,7.76 q -4.38,5.33 -8.62,10.72 -4.84,6.18 -9.54,12.45 z"
     id="path151" />
  <path
     inkscape:connector-curvature="0"
     style="opacity:0.05"
     d="m 351.18534,723.26236 c -3,3.95 -6,8.51 -5.3,13.39 0.4,2.63 1.87,4.95 2.95,7.39 a 52.09,52.09 0 0 1 3,10.38 c 1.11,5.17 2.22,10.35 2.91,15.59 a 97.36,97.36 0 0 1 0.65,17.9 c -0.09,1.44 -0.25,3 -1.25,4 -0.4,0.4 -0.92,0.73 -1.09,1.27 a 2.15,2.15 0 0 0 0.23,1.5 16.61,16.61 0 0 0 8.9,8.19 34.09,34.09 0 0 0 12.1,2.26 3.4,3.4 0 0 0 1.62,-0.21 3.12,3.12 0 0 0 1.25,-1.43 c 3,-5.7 1.33,-12.58 1.38,-19 0,-5.37 1.3,-10.69 1.07,-16.06 -0.19,-4.3 -1.34,-8.5 -1.76,-12.79 -0.69,-7 0.6,-14.1 1.89,-21.05 1,-5.32 2,-10.65 3.25,-15.92 a 30.36,30.36 0 0 1 3.44,-9.24 c 1.4,-2.21 3.3,-4.06 4.9,-6.14 a 27.87,27.87 0 0 0 5.48,-20.37 c -0.1,-0.72 -10.3,2.58 -11.18,3 a 34.66,34.66 0 0 0 -10,6.41 c -2.36,2.24 -4.21,5.24 -6.28,7.76 q -4.38,5.33 -8.62,10.72 -4.84,6.18 -9.54,12.45 z"
     id="path153" />
  <path
     inkscape:connector-curvature="0"
     style="fill:#464353"
     d="m 372.84534,692.88236 c 0.64,3.06 3.61,5.4 3.69,8.53 0.07,2.5 -1.71,4.6 -3,6.75 a 45.27,45.27 0 0 0 -3.06,6.94 105.82,105.82 0 0 1 -9,17.87 c -1.71,2.72 -3.63,5.67 -3.23,8.86 a 13.08,13.08 0 0 0 1.55,4.23 l 5.14,10.21 a 29.3,29.3 0 0 1 2.62,6.45 c 0.45,1.94 0.49,4 0.75,5.92 0.81,6.26 3.74,12.56 2,18.63 -0.15,0.52 -0.7,1.15 -1.11,0.79 1.7,3.17 3.07,6.37 2.93,10 -0.06,1.89 -0.64,3.85 0.06,5.61 a 6.12,6.12 0 0 1 0.78,2.14 c 0,0.51 -0.24,1 -0.29,1.51 -0.14,1.44 1.18,2.65 2.56,3.11 1.38,0.46 2.88,0.43 4.27,0.84 2.68,0.8 4.58,3.1 6.88,4.7 a 14.45,14.45 0 0 0 7.89,2.57 2,2 0 0 0 1.16,-0.23 1.9,1.9 0 0 0 0.65,-1.41 7.84,7.84 0 0 0 -2.83,-6.81 3.15,3.15 0 0 1 -1,-1.1 2.67,2.67 0 0 1 -0.1,-1.23 91.21,91.21 0 0 0 -0.3,-16.85 26,26 0 0 1 -0.26,-5.36 21.91,21.91 0 0 0 0.43,-4.47 22.82,22.82 0 0 0 -1.37,-4.27 c -0.79,-2.55 -0.57,-5.29 -0.65,-8 a 70.12,70.12 0 0 0 -2.26,-13.69 10.39,10.39 0 0 0 -2.13,-4.94 c -1.07,-1.12 -2.8,-2.18 -2.39,-3.67 a 4.24,4.24 0 0 1 1,-1.46 5.86,5.86 0 0 0 1.23,-4.47 2,2 0 0 0 2.3,-1.08 36,36 0 0 0 18.08,-20.56 6.68,6.68 0 0 1 0.81,-1.83 c 0.77,-1.08 2.12,-1.55 3.31,-2.15 3.74,-1.88 6.32,-5.41 8.69,-8.86 a 20.61,20.61 0 0 0 3.36,-6.43 21.18,21.18 0 0 0 0.46,-4.64 l 0.21,-8 a 4.59,4.59 0 0 0 -0.15,-1.57 4,4 0 0 0 -0.87,-1.28 15.53,15.53 0 0 0 -8.54,-4.6 c -2.19,-0.39 -4.43,-0.32 -6.65,-0.5 -4.3,-0.36 -8.55,-1.69 -12.86,-1.38 -6.76,0.5 -12.78,5.19 -16,11.17 -1.18,2.14 -2.36,3.94 -4.76,4.01 z"
     id="path155" />
  <path
     inkscape:connector-curvature="0"
     style="fill:#514e7f"
     d="m 148.45534,815.35236 a 10.89,10.89 0 0 0 4.6,0.55 c 0.11,-1.27 1.82,-1.55 3.09,-1.49 a 3.55,3.55 0 0 1 1.82,0.4 c 0.32,0.2 0.56,0.5 0.87,0.71 a 3.74,3.74 0 0 0 1.8,0.46 l 6.62,0.56 c 2.95,0.25 6,0.48 8.78,-0.58 a 2.87,2.87 0 0 0 1.41,-0.94 c 0.75,-1.07 0,-2.61 -1,-3.39 -1,-0.78 -2.37,-1.14 -3.41,-1.94 -2.3,-1.75 -2.61,-5 -3.83,-7.64 a 22.05,22.05 0 0 0 -3.16,-4.59 17.57,17.57 0 0 0 -3.13,-3.2 c -2.65,-1.92 -5.71,-1.88 -8.82,-2.15 -2.2,-0.2 -4.27,-0.33 -5.85,1.62 -1.95,2.42 -1.17,7.3 -1.05,10.19 a 72.94,72.94 0 0 0 1.26,11.43 z"
     id="path157" />
  <path
     inkscape:connector-curvature="0"
     style="opacity:0.05"
     d="m 148.45534,815.35236 a 10.89,10.89 0 0 0 4.6,0.55 c 0.11,-1.27 1.82,-1.55 3.09,-1.49 a 3.55,3.55 0 0 1 1.82,0.4 c 0.32,0.2 0.56,0.5 0.87,0.71 a 3.74,3.74 0 0 0 1.8,0.46 l 6.62,0.56 c 2.95,0.25 6,0.48 8.78,-0.58 a 2.87,2.87 0 0 0 1.41,-0.94 c 0.75,-1.07 0,-2.61 -1,-3.39 -1,-0.78 -2.37,-1.14 -3.41,-1.94 -2.3,-1.75 -2.61,-5 -3.83,-7.64 a 22.05,22.05 0 0 0 -3.16,-4.59 17.57,17.57 0 0 0 -3.13,-3.2 c -2.65,-1.92 -5.71,-1.88 -8.82,-2.15 -2.2,-0.2 -4.27,-0.33 -5.85,1.62 -1.95,2.42 -1.17,7.3 -1.05,10.19 a 72.94,72.94 0 0 0 1.26,11.43 z"
     id="path159" />
  <path
     inkscape:connector-curvature="0"
     style="fill:#464353"
     d="m 151.13534,686.67236 c -2,0.65 -2.9,3.17 -2.53,5.27 0.37,2.1 1.63,3.9 2.67,5.75 2.94,5.27 4.22,11.3 6.69,16.8 1.85,4.11 4.35,7.91 6.18,12 1.83,4.09 3,8.77 1.85,13.14 -0.54,2.13 -1.58,4.09 -2.28,6.17 a 35,35 0 0 0 -1.34,7 132.68,132.68 0 0 0 -0.48,24.16 7.34,7.34 0 0 0 0.61,2.86 c 0.41,0.8 1.13,1.64 0.78,2.47 -0.14,0.33 -0.44,0.57 -0.59,0.9 -0.42,0.92 0.43,1.88 1.2,2.53 a 2.07,2.07 0 0 1 -1.3,1 3.07,3.07 0 0 1 1.31,3.42 c -0.69,0.1 -0.73,1.15 -0.29,1.7 0.44,0.55 1.11,0.9 1.42,1.52 a 2.13,2.13 0 0 1 -1.17,2.68 5.48,5.48 0 0 1 -3.19,0.24 34.58,34.58 0 0 1 -5.34,-1.17 4.8,4.8 0 0 1 -1.64,-0.75 4.87,4.87 0 0 1 -1.47,-3.24 58.55,58.55 0 0 1 -0.37,-10 c 0.29,-16.16 0,-32.34 -0.7,-48.49 -0.29,-6.5 -2.24,-12.84 -4.76,-18.84 a 96.67,96.67 0 0 0 -4.64,-9 c -3.62,-6.66 -6.84,-14 -6,-21.55 0.09,-0.81 0.39,-1.79 1.19,-1.92 a 1.73,1.73 0 0 1 0.92,0.15 42.53,42.53 0 0 1 4.85,2.68 18.38,18.38 0 0 0 8.42,2.52 z"
     id="path161" />
  <path
     inkscape:connector-curvature="0"
     style="opacity:0.05"
     d="m 151.13534,686.67236 c -2,0.65 -2.9,3.17 -2.53,5.27 0.37,2.1 1.63,3.9 2.67,5.75 2.94,5.27 4.22,11.3 6.69,16.8 1.85,4.11 4.35,7.91 6.18,12 1.83,4.09 3,8.77 1.85,13.14 -0.54,2.13 -1.58,4.09 -2.28,6.17 a 35,35 0 0 0 -1.34,7 132.68,132.68 0 0 0 -0.48,24.16 7.34,7.34 0 0 0 0.61,2.86 c 0.41,0.8 1.13,1.64 0.78,2.47 -0.14,0.33 -0.44,0.57 -0.59,0.9 -0.42,0.92 0.43,1.88 1.2,2.53 a 2.07,2.07 0 0 1 -1.3,1 3.07,3.07 0 0 1 1.31,3.42 c -0.69,0.1 -0.73,1.15 -0.29,1.7 0.44,0.55 1.11,0.9 1.42,1.52 a 2.13,2.13 0 0 1 -1.17,2.68 5.48,5.48 0 0 1 -3.19,0.24 34.58,34.58 0 0 1 -5.34,-1.17 4.8,4.8 0 0 1 -1.64,-0.75 4.87,4.87 0 0 1 -1.47,-3.24 58.55,58.55 0 0 1 -0.37,-10 c 0.29,-16.16 0,-32.34 -0.7,-48.49 -0.29,-6.5 -2.24,-12.84 -4.76,-18.84 a 96.67,96.67 0 0 0 -4.64,-9 c -3.62,-6.66 -6.84,-14 -6,-21.55 0.09,-0.81 0.39,-1.79 1.19,-1.92 a 1.73,1.73 0 0 1 0.92,0.15 42.53,42.53 0 0 1 4.85,2.68 18.38,18.38 0 0 0 8.42,2.52 z"
     id="path163" />
  <path
     inkscape:connector-curvature="0"
     style="fill:#464353"
     d="m 123.81534,667.02236 a 7.11,7.11 0 0 0 -3.52,-1.11 7.14,7.14 0 0 0 -3.83,1.9 40.17,40.17 0 0 0 -3.8,3.34 20.33,20.33 0 0 0 -4.54,20.11 c 1.21,3.59 3.4,6.76 5.56,9.86 l 4.4,6.32 c 6.71,9.64 13.43,19.28 20.46,28.69 a 1.08,1.08 0 0 0 0.76,1 c 0.26,0.07 0.57,0.06 0.73,0.27 a 0.78,0.78 0 0 1 0.09,0.43 6.53,6.53 0 0 1 -0.39,2 0.93,0.93 0 0 0 -0.08,0.69 c 0.22,0.53 1.19,0.23 1.49,0.73 0.21,0.32 0,0.75 -0.32,1 -0.32,0.25 -0.6,0.59 -0.55,1 0.05,0.41 0.72,0.79 0.69,1.29 0,0.28 -0.24,0.49 -0.41,0.71 a 1.81,1.81 0 0 0 0.22,2.31 c 0.46,4.6 -2,8.95 -2.53,13.55 -0.79,7.23 2.48,14.29 2.88,21.55 a 5.77,5.77 0 0 0 0.45,2.38 c 0.68,1.25 2.42,2 2.36,3.43 a 13.09,13.09 0 0 1 -0.49,1.73 13.91,13.91 0 0 0 0.26,2.47 c 0,0.83 -0.7,1.82 -1.47,1.5 q 0.87,2.88 1.54,5.81 l 15.4,1.27 a 13.83,13.83 0 0 0 -0.14,-4.16 c -0.32,-1.48 -1,-2.87 -1.34,-4.35 a 5.13,5.13 0 0 1 0.61,-4.35 1.7,1.7 0 0 1 -1.7,-1.4 6.86,6.86 0 0 1 0,-2.39 c 0.41,-4 -1.28,-8 -1.23,-12 0.05,-3.18 1.16,-6.23 1.73,-9.35 1.2,-6.68 -0.05,-13.93 2.92,-20 1.8,-3.68 4.29,-7.76 2.27,-11.32 -1,-1.76 -2.75,-3 -3.89,-4.62 a 18.77,18.77 0 0 1 -2.09,-5 c -2.38,-7.36 -6.21,-14.15 -9.58,-21.12 a 22.23,22.23 0 0 1 -2.06,-5.55 28.21,28.21 0 0 1 -0.25,-5.12 78.48,78.48 0 0 0 -0.57,-9.2 8.61,8.61 0 0 0 -1.12,-3.81 8.53,8.53 0 0 0 -2.4,-2.19 c -5.05,-3.44 -11.07,-5.43 -16.52,-8.3 z"
     id="path165" />
  <path
     inkscape:connector-curvature="0"
     style="fill:#514e7f"
     d="m 142.26534,820.99236 a 10.89,10.89 0 0 0 4.6,0.55 c 0.12,-1.27 1.82,-1.55 3.09,-1.49 a 3.55,3.55 0 0 1 1.77,0.41 c 0.32,0.2 0.56,0.5 0.88,0.71 a 3.68,3.68 0 0 0 1.8,0.46 l 6.61,0.56 c 2.95,0.25 6,0.48 8.79,-0.58 a 2.89,2.89 0 0 0 1.4,-0.94 c 0.75,-1.07 0,-2.61 -1,-3.39 -1,-0.78 -2.37,-1.14 -3.42,-1.94 -2.29,-1.75 -2.61,-5 -3.83,-7.64 a 22.05,22.05 0 0 0 -3.16,-4.59 17.52,17.52 0 0 0 -3.12,-3.2 c -2.66,-1.92 -5.71,-1.88 -8.82,-2.15 -2.21,-0.2 -4.28,-0.33 -5.85,1.62 -2,2.42 -1.18,7.3 -1.06,10.19 a 74.3,74.3 0 0 0 1.32,11.42 z"
     id="path167" />
  <rect
     style="fill:#ffffff"
     x="225.76534"
     y="705.00232"
     width="78.029999"
     height="78.029999"
     id="rect169" />
  <circle
     style="fill:#a1616a"
     cx="210.50534"
     cy="625.11237"
     r="15.25"
     id="circle173" />
  <path
     inkscape:connector-curvature="0"
     style="fill:#a1616a"
     d="m 196.12534,629.63236 c -2.19,1.89 -5.32,2 -8.19,2.32 a 51.19,51.19 0 0 0 -17.62,5.1 6.29,6.29 0 0 0 -2,1.4 5.77,5.77 0 0 0 -1,2.18 14.42,14.42 0 0 0 -0.58,5.3 15.28,15.28 0 0 0 1.47,5 26.84,26.84 0 0 0 9.46,10.78 6.87,6.87 0 0 0 2.3,1.1 c 2,0.42 3.95,-0.75 5.92,-1.27 a 9.7,9.7 0 0 1 5.47,0.18 c 1.66,0.55 3.41,1.56 5,0.89 a 5.22,5.22 0 0 0 2.28,-2.59 87.89,87.89 0 0 0 4.16,-9.11 34.52,34.52 0 0 1 1.51,-3.54 c 1.77,-3.37 4.83,-6 6.35,-9.46 a 2.08,2.08 0 0 0 0.14,-1.78 2.47,2.47 0 0 0 -1.12,-0.86 26.73,26.73 0 0 1 -6.09,-4.78 c -1,-1 -2.85,-3.56 -4.29,-3.79 -1.58,-0.21 -2.07,1.99 -3.17,2.93 z"
     id="path175" />
  <path
     inkscape:connector-curvature="0"
     style="fill:#514e7f"
     d="m 196.48534,660.62236 c -1.77,0.85 -3.85,0.47 -5.77,0.07 -4.94,-1 -9.93,-2.08 -14.5,-4.22 a 7.76,7.76 0 0 1 -3.56,-2.73 8.73,8.73 0 0 1 -1,-3.42 l -0.84,-5.67 c -0.29,-2 0.22,-3.82 0.26,-5.82 a 1.7,1.7 0 0 0 -0.33,-1.27 1.37,1.37 0 0 0 -1,-0.31 c -2.29,0 -3.67,2.43 -5.28,4.06 a 9.75,9.75 0 0 1 -3.24,2.18 c -1.47,0.6 -3.28,1 -3.87,2.49 -0.25,0.61 -0.22,1.31 -0.47,1.92 -1,2.44 -5.4,1.63 -6.51,4 -0.32,0.68 -0.3,1.54 -0.83,2.08 -0.53,0.54 -1.5,0.52 -2.3,0.66 -3.18,0.52 -4.73,4.2 -7.45,5.93 -2.29,1.46 -5.24,1.43 -7.7,2.57 a 29.48,29.48 0 0 1 -4,2 18.9,18.9 0 0 1 -4.64,0.23 1.25,1.25 0 0 0 -0.93,0.3 1.28,1.28 0 0 0 -0.15,1 28.07,28.07 0 0 0 17.35,21.73 6.12,6.12 0 0 1 1.48,0.71 c 1.39,1 1.63,3.27 3.2,4 a 3.31,3.31 0 0 0 3.34,-0.72 29.05,29.05 0 0 0 2.41,-2.66 9.6,9.6 0 0 1 5.37,-2.82 c 1.89,-0.3 4,-0.08 5.53,-1.24 a 17,17 0 0 0 1.74,-1.86 10.91,10.91 0 0 1 4,-2.36 40,40 0 0 1 12.5,-2.64 c 4,-0.23 8.15,0.14 11.94,-1.17 a 7,7 0 0 0 2.66,-1.5 8,8 0 0 0 1.78,-3.09 23.59,23.59 0 0 0 0.81,-12.43 z"
     id="path177" />
  <path
     inkscape:connector-curvature="0"
     style="fill:#514e7f"
     d="m 176.82534,638.15236 c 1.13,-0.1 2.26,0 3.39,0 1.33,0 2.64,-0.32 4,-0.33 a 9.86,9.86 0 0 1 9.3,7.08 1.8,1.8 0 0 1 0.06,1 0.71,0.71 0 0 1 -0.77,0.52 16.9,16.9 0 0 0 -1.71,-3.43 9.71,9.71 0 0 0 -5.12,-3.56 13.29,13.29 0 0 0 -6.3,-0.23 c -0.86,0.16 -1.71,0.39 -2.56,0.63 l -4.15,1.12 c -0.75,0.2 -1.5,0.41 -2.23,0.68 -0.56,0.2 -1.53,1 -2.08,1 -0.75,0 -0.14,-0.65 0.19,-1.09 a 5.34,5.34 0 0 1 2.66,-1.93 22.38,22.38 0 0 1 5.32,-1.46 z"
     id="path179" />
  <path
     inkscape:connector-curvature="0"
     style="fill:#a1616a"
     d="m 187.10534,683.96236 c 1,3.16 2,6.32 3.21,9.4 a 79.54,79.54 0 0 0 8.32,15.16 109.23,109.23 0 0 0 6.87,9 c 3.06,3.61 6.48,7.24 7.56,11.85 0.63,2.66 0.42,5.45 0.68,8.17 0.26,2.72 1.15,5.61 3.35,7.24 a 12.45,12.45 0 0 0 5.52,1.82 c 1.38,0.22 3.11,0.29 3.83,-0.91 a 3.41,3.41 0 0 0 0.38,-1.58 l 0.33,-4 c 0.08,-0.86 0.38,-2 1.24,-2 0.86,0 1.3,1.11 2,1.62 a 2.17,2.17 0 0 0 3,-1 5.07,5.07 0 0 0 0.08,-3.5 16.62,16.62 0 0 0 -8.51,-10.58 25.64,25.64 0 0 1 -4.16,-2.17 14,14 0 0 1 -3.27,-4.12 c -7.57,-12.45 -15.17,-25 -20.5,-38.51 a 28.49,28.49 0 0 1 -2.11,-7.59 49,49 0 0 1 0.33,-8 45.79,45.79 0 0 0 -1.29,-14.3 11.23,11.23 0 0 0 -1.37,-3.47 c -2.19,-3.34 -7.36,-3.83 -10.62,-1.53 a 10.94,10.94 0 0 0 -4.22,7.72 c -0.24,2.69 1.32,5.5 2.11,8 q 3.62,11.65 7.24,23.28 z"
     id="path181" />
  <path
     inkscape:connector-curvature="0"
     style="fill:#464353"
     d="m 232.69534,614.33236 c 0.12,-1.27 -1,-2.42 -2.31,-3.23 a 32.25,32.25 0 0 1 -3.92,-2.4 c -1.16,-1 -1.79,-2.31 -2.95,-3.31 a 13,13 0 0 0 -4.4,-2.19 33.4,33.4 0 0 0 -10.52,-1.89 18.53,18.53 0 0 0 -10.07,2.66 6,6 0 0 0 -1.71,1.59 7,7 0 0 0 -0.83,2.53 50,50 0 0 1 -2.63,8 c -1.13,2.88 -2.34,5.86 -5,8.08 -2.85,2.38 -7.22,3.75 -9.1,6.62 a 2.15,2.15 0 0 0 -0.41,1.85 c 0.27,0.72 1.14,1.21 1.93,1.67 4.63,2.66 8.62,6.1 10.68,10.22 a 11.85,11.85 0 0 1 -0.94,12.75 c -1.07,1.4 -2.55,3.06 -1.5,4.47 1.59,2.14 7.08,0.92 8.34,3.18 a 4.52,4.52 0 0 1 0.17,2.34 c 0,2.37 2.29,4.49 5.07,5.58 a 28.27,28.27 0 0 0 9.12,1.5 7.88,7.88 0 0 0 0.23,-5.9 2.36,2.36 0 0 1 -0.23,-1.34 3.22,3.22 0 0 1 1,-1.29 c 3.35,-3.16 2.64,-7.81 0.63,-11.56 -2.01,-3.75 -5.13,-7.19 -6.29,-11.14 -0.58,-2 -0.59,-4.17 1,-5.8 a 20.2,20.2 0 0 1 2.87,-2.1 10.91,10.91 0 0 0 4,-5 c 0.93,-2.6 0.79,-5.73 3.53,-7.45 2.74,-1.72 6.29,-1.16 9.18,-2.27 2.33,-0.93 4.88,-4.32 5.06,-6.17 z"
     id="path183" />
  <circle
     style="fill:#fbbebe"
     cx="318.20532"
     cy="619.72235"
     r="16.629999"
     id="circle185" />
  <path
     inkscape:connector-curvature="0"
     style="fill:#fbbebe"
     d="m 333.17534,619.02236 a 21.56,21.56 0 0 0 13.8,9.65 l -1.25,4.54 c -2.16,7.82 -4.6,16.1 -10.64,21.52 a 10.06,10.06 0 0 0 -1.69,-7.78 29.46,29.46 0 0 0 -5.64,-5.9 l -9.57,-8.33 a 2.61,2.61 0 0 1 -0.72,-0.8 2.44,2.44 0 0 1 0,-1.82 c 1.22,-3.8 4.7,-6.17 7.52,-8.73 a 26.52,26.52 0 0 0 3.79,-4.41 c 1.96,-2.7 3.19,0.03 4.4,2.06 z"
     id="path187" />
  <path
     inkscape:connector-curvature="0"
     d="m 335.29534,640.53236 a 9,9 0 0 1 -0.49,3.67 2.58,2.58 0 0 1 -3,1.54 c 0.35,-0.79 -0.57,-1.69 -1.43,-1.59 a 2.69,2.69 0 0 0 -1.9,1.61 6,6 0 0 0 -0.55,3.72 c 0.27,1.58 1.18,3.09 0.94,4.67 -0.19,1.31 -1.16,2.62 -0.64,3.85 a 6.18,6.18 0 0 0 1.24,1.48 4.2,4.2 0 0 1 -0.45,5.76 l 13,0.25 c -0.48,2.17 0.5,4.39 1.61,6.31 a 39.73,39.73 0 0 0 29.62,19.34 2.58,2.58 0 0 0 -0.62,3.94 c 1.06,1.05 2.84,0.92 4.16,0.24 a 31.58,31.58 0 0 0 3.57,-2.67 10.91,10.91 0 0 1 7.32,-2 c 1.63,0.15 3.2,0.67 4.83,0.76 4.8,0.26 8.93,-3.2 13.52,-4.61 3.37,-1 7.18,-1 10,-3.14 1.22,-0.9 2.22,-2.38 1.86,-3.86 a 6.29,6.29 0 0 0 -1.4,-2.26 c -1.63,-2.11 -2.58,-4.64 -3.75,-7 a 41.79,41.79 0 0 0 -9.37,-12.54 82.71,82.71 0 0 0 -9.28,-7.05 15.71,15.71 0 0 0 -2.52,-1.51 25.81,25.81 0 0 1 -3.44,-1.4 c -1.53,-1 -2.4,-2.65 -3.57,-4 -2.57,-3 -6.52,-4.37 -9.69,-6.73 -2.12,-1.58 -4,-3.66 -6.53,-4.43 -1.23,-0.37 -2.55,-0.4 -3.78,-0.77 -2.8,-0.85 -4.84,-3.34 -7.59,-4.34 -2.17,-0.8 -4.57,-0.59 -6.87,-0.88 a 16,16 0 0 1 -7.06,-2.67 8.49,8.49 0 0 0 -2.28,-1.34 c -3.47,-1 -3.75,5.42 -4.08,7.66 -0.52,3.27 -1.38,6.62 -1.38,9.99 z"
     id="path189"
     style="fill:#3f3d56;fill-opacity:1" />
  <path
     inkscape:connector-curvature="0"
     style="fill:#fbbebe"
     d="m 338.68534,662.24236 c 0.58,6.31 -4.19,12.43 -2.8,18.62 0.3,1.32 0.86,2.57 1.07,3.9 0.58,3.67 -1.61,7.14 -3.7,10.21 l -18,26.34 a 16,16 0 0 1 -2.56,3.17 c -3.44,3.05 -8.58,2.73 -13.09,3.65 a 22.41,22.41 0 0 0 -8.77,3.88 0.57,0.57 0 0 0 -0.11,0.78 7.52,7.52 0 0 0 6.52,3.06 c 0.47,0.62 0,1.54 -0.65,2 -1,0.67 -2.29,0.85 -2.48,2.48 a 2.78,2.78 0 0 0 0.32,1.65 5.12,5.12 0 0 0 3.15,2.18 c 6.21,1.9 12.92,-1.44 17.57,-6 4.65,-4.56 8,-10.27 12.56,-14.9 2.53,-2.56 5.4,-4.75 8,-7.23 5.19,-5 9.23,-11 13.13,-17 a 18.92,18.92 0 0 0 2.84,-5.79 c 0.48,-2.05 0.26,-4.23 0.82,-6.26 0.72,-2.67 2.67,-4.8 4.3,-7 3.19,-4.39 5.31,-9.75 4.89,-15.16 -0.42,-5.41 -3.77,-10.73 -8.86,-12.57 a 7.93,7.93 0 0 0 -5,-0.3 c -2.09,0.64 -3.63,2.37 -5.06,4 l -3.41,3.94 a 9.36,9.36 0 0 0 -2,3 3.15,3.15 0 0 0 0.7,3.35"
     id="path191" />
  <path
     inkscape:connector-curvature="0"
     d="m 347.76534,636.31236 c -2.36,0.14 -5,0.37 -6.63,2 a 9.26,9.26 0 0 0 -1.66,2.62 c -1.62,3.29 -3.2,6.74 -3.31,10.41 -0.1,2.93 0.75,5.8 1.2,8.7 0.37,2.41 -0.57,4.87 -0.75,7.31 a 49.91,49.91 0 0 0 9.44,-3.63 31.56,31.56 0 0 1 5.53,-2.87 c 2.81,-0.94 7.55,0.67 10.21,2 0.15,-1.88 -1.26,-5.15 -1.11,-7 a 7.67,7.67 0 0 1 0.42,-2.33 13.89,13.89 0 0 1 1.41,-2.25 9.21,9.21 0 0 0 -0.83,-10.81 c -2.37,-2.67 -6.09,-3.67 -9.64,-4.09 a 42.16,42.16 0 0 0 -6.74,-0.23"
     id="path193"
     style="fill:#3f3d56;fill-opacity:1" />
  <path
     inkscape:connector-curvature="0"
     style="fill:#464353"
     d="m 296.29534,603.00236 -0.38,-3.13 c 2.63,0.67 5.12,-1.55 6.8,-3.86 1.68,-2.31 3.23,-5 5.78,-6 3.11,-1.17 6.4,0.7 9.37,2.24 a 29.33,29.33 0 0 0 10.75,3.56 7.61,7.61 0 0 1 1.78,0.29 c 1.93,0.69 2.85,3.11 3.13,5.31 0.28,2.2 0.2,4.54 1.15,6.5 0.73,1.48 2,2.59 2.72,4 2,3.93 0.07,9.31 2.22,13.17 l -5.33,-4.88 c -0.49,-0.45 -1.18,-0.92 -1.71,-0.54 -0.53,0.38 -0.46,1 -0.64,1.47 a 2.79,2.79 0 0 1 -3.79,1.38 10.39,10.39 0 0 1 -3.39,-3.1 20.72,20.72 0 0 0 -8.46,-6.41 10.81,10.81 0 0 0 -8.95,0.53 c -2.49,1.41 -4.31,4.68 -7.36,4.79 -4.18,0.16 -5.92,-7.62 -7.85,-10.69 a 3.79,3.79 0 0 0 1.1,-4.72 c 0.29,-0.1 3,-0.39 3.06,0.09 z"
     id="path195" />
  <path
     d="m 1105.8301,793.28976 c -3,-5.51 0.4,-12.26 4.29,-17.17 3.89,-4.91 8.61,-10 8.51,-16.29 -0.15,-9 -9.7,-14.32 -17.33,-19.09 a 84,84 0 0 1 -15.56,-12.53 23,23 0 0 1 -4.78,-6.4 c -1.58,-3.52 -1.54,-7.52 -1.44,-11.37 q 0.51,-19.28 1.91,-38.49"
     stroke-miterlimit="10"
     id="path162"
     inkscape:connector-curvature="0"
     style="fill:none;stroke:#3f3d56;stroke-width:4;stroke-miterlimit:10" />
  <path
     d="m 1066.9201,671.26976 a 14,14 0 0 1 7,-11.5 l 3.14,6.21 -0.1,-7.52 a 14.22,14.22 0 0 1 4.63,-0.56 14,14 0 1 1 -14.68,13.37 z"
     id="path164"
     inkscape:connector-curvature="0"
     style="fill:#57b894" />
  <path
     d="m 1091.9501,766.25976 a 14,14 0 1 0 -0.68,-11.3 l 8.77,7.13 -9.65,-2.23 a 14,14 0 0 0 1.56,6.4 z"
     id="path166"
     inkscape:connector-curvature="0"
     style="fill:#57b894" />
  <path
     d="m 1098.8801,739.00976 a 14,14 0 0 0 4.45,-27.53 l 0.08,5.78 -3.18,-6.29 v 0 a 14,14 0 0 0 -14.67,13.36 13.84,13.84 0 0 0 0.6,4.79 14,14 0 0 0 12.72,9.89 z"
     id="path168"
     inkscape:connector-curvature="0"
     style="fill:#57b894" />
  <path
     d="m 1064.8101,716.33976 a 14,14 0 1 0 -6.21,-26.27 l 2.48,6.8 -5.1,-4.9 a 14,14 0 0 0 -4.53,9.69 13.79,13.79 0 0 0 0.35,3.87 14.05,14.05 0 0 0 13.01,10.81 z"
     id="path170"
     inkscape:connector-curvature="0"
     style="fill:#57b894" />
  <path
     d="m 1068.8101,675.00976 c 3.24,0.35 6.39,1.36 9.64,1.56 3.25,0.2 6.82,-0.58 8.88,-3.1 1.1,-1.36 1.66,-3.09 2.59,-4.57 a 10,10 0 0 1 3.54,-3.33 14,14 0 1 1 -26.24,9.32 q 0.8,0.03 1.59,0.12 z"
     id="path172"
     inkscape:connector-curvature="0"
     style="opacity:0.1" />
  <path
     d="m 1064.8101,716.33976 a 14,14 0 0 0 13.35,-20 10.37,10.37 0 0 0 -2.82,2.82 c -1,1.51 -1.61,3.25 -2.78,4.64 -2.19,2.57 -5.92,3.41 -9.31,3.26 -3.39,-0.15 -6.66,-1.12 -10,-1.43 -0.47,0 -0.94,-0.07 -1.42,-0.08 a 14.05,14.05 0 0 0 12.98,10.79 z"
     id="path174"
     inkscape:connector-curvature="0"
     style="opacity:0.1" />
  <path
     d="m 1098.8801,739.00976 a 14,14 0 0 0 13.46,-19.8 11.48,11.48 0 0 0 -3,2.85 c -1.09,1.54 -1.77,3.31 -3,4.73 -2.37,2.64 -6.35,3.57 -9.93,3.48 -3.58,-0.09 -6.83,-0.92 -10.28,-1.19 a 14,14 0 0 0 12.75,9.93 z"
     id="path176"
     inkscape:connector-curvature="0"
     style="opacity:0.1" />
  <path
     d="m 1091.9501,766.25976 a 14.017405,14.017405 0 0 0 25.59,-11.45 13.8,13.8 0 0 0 -3.08,2.74 c -1.34,1.63 -2.22,3.48 -3.76,5 -2.87,2.82 -7.5,4 -11.63,4.09 a 62.17,62.17 0 0 1 -7.12,-0.38 z"
     id="path178"
     inkscape:connector-curvature="0"
     style="opacity:0.1" />
  <path
     d="m 1127.0001,786.94976 c 0,0 -11.08,-0.34 -14.42,-2.72 -3.34,-2.38 -17,-5.21 -17.86,-1.4 -0.86,3.81 -16.65,19 -4.15,19.06 12.5,0.06 29.06,-1.95 32.4,-4 3.34,-2.05 4.03,-10.94 4.03,-10.94 z"
     id="path180"
     inkscape:connector-curvature="0"
     style="fill:#656380" />
  <path
     d="m 1090.3501,800.55976 c 12.51,0.1 29.06,-1.94 32.39,-4 2.54,-1.55 3.55,-7.1 3.89,-9.65 h 0.37 c 0,0 -0.7,8.93 -4,11 -3.3,2.07 -19.89,4.08 -32.4,4 -3.61,0 -4.85,-1.31 -4.78,-3.21 0.47,1.12 1.84,1.84 4.53,1.86 z"
     id="path182"
     inkscape:connector-curvature="0"
     style="opacity:0.2" />
  <path
     inkscape:connector-curvature="0"
     style="fill:#0080ff"
     d="m 414.3247,245.52939 h 6.95 v 41.68 h -6.95 z m -10.42,29.52 h 6.94 v 12.16 h -6.95 z m 20.84,-6.95 h 7 v 19.11 h -7 z m 10.42,-10.42 h 6.95 v 29.53 h -6.95 z"
     id="path197" />
  <path
     inkscape:connector-curvature="0"
     style="fill:#0080ff"
     d="m 504.34953,284.26806 h 27.79 v 5.21 h -27.79 z m 13.9,-13.89 a 3.5,3.5 0 0 0 0,-7 3.83,3.83 0 0 0 -1,0.13 l -7.17,-5.23 -0.43,0.38 5.31,7.24 a 3.29,3.29 0 0 0 -0.16,1 3.47,3.47 0 0 0 3.45,3.48 z"
     id="path211" />
  <path
     inkscape:connector-curvature="0"
     style="fill:#0080ff"
     d="m 518.24953,244.32806 a 22.57,22.57 0 0 0 -17.79,36.47 h 6.38 l 0.43,-0.44 2.4,-2.39 -2.48,-2.49 -2.4,2.39 a 17.25,17.25 0 0 1 -3.82,-9.23 h 3.38 v -3.42 h -3.38 a 17.25,17.25 0 0 1 3.82,-9.23 l 2.4,2.39 2.48,-2.49 -2.39,-2.39 a 17.28,17.28 0 0 1 9.23,-3.82 v 3.38 h 3.47 v -3.38 a 17.25,17.25 0 0 1 9.23,3.82 l -2.39,2.39 2.49,2.49 2.4,-2.39 a 17.33,17.33 0 0 1 3.82,9.23 h -3.39 v 3.47 h 3.39 a 17.33,17.33 0 0 1 -3.82,9.23 l -2.4,-2.39 -2.49,2.49 2.4,2.39 0.44,0.44 h 6.42 a 22.58,22.58 0 0 0 -17.79,-36.47 z"
     id="path213" />
  <path
     inkscape:connector-curvature="0"
     style="fill:#0080ff;stroke-width:1.0292964"
     d="m 273.962,727.3288 5.73318,5.72288 -12.20745,12.22805 -10.01505,-10.01505 -18.52734,18.57879 3.53049,3.53049 15.01743,-15.01744 10.01506,10.01506 15.75852,-15.74824 5.73318,5.73318 V 727.3288 Z"
     id="path219" />
  <rect
     x="636.66449"
     y="419.97647"
     width="10.5"
     height="86.25"
     id="rect4173-2"
     style="opacity:0.2;fill:#0080ff" />
  <rect
     style="fill:#ededf4"
     x="224.11865"
     y="221.41026"
     width="94"
     height="10"
     id="rect89" />
  <rect
     style="fill:#ededf4"
     x="224.11865"
     y="250.41026"
     width="94"
     height="10"
     id="rect91" />
  <rect
     style="fill:#ededf4"
     x="224.11865"
     y="279.41025"
     width="94"
     height="10"
     id="rect93" />
  <rect
     style="fill:#ededf4"
     x="224.11865"
     y="308.41025"
     width="94"
     height="10"
     id="rect95" />
  <rect
     style="fill:#ededf4"
     x="224.11865"
     y="337.41025"
     width="94"
     height="10"
     id="rect97" />
</svg>
